<mxfile host="Electron" agent="Mozilla/5.0 (X11; Linux x86_64) AppleWebKit/537.36 (KHTML, like Gecko) draw.io/24.7.5 Chrome/126.0.6478.183 Electron/31.3.0 Safari/537.36" version="24.7.5" pages="30">
  <diagram name="Page-1" id="4GoMTRzCD4gLgwdyyc5-">
    <mxGraphModel dx="383" dy="261" grid="1" gridSize="5" guides="1" tooltips="1" connect="1" arrows="1" fold="1" page="0" pageScale="1" pageWidth="827" pageHeight="1169" math="1" shadow="0">
      <root>
        <mxCell id="0" />
        <mxCell id="1" parent="0" />
        <mxCell id="g8SryiDqKdlfWiKk7YuE-1" value="$$a$$" style="text;align=center;verticalAlign=middle;resizable=0;points=[];autosize=1;strokeColor=none;fillColor=none;html=1;" vertex="1" parent="1">
          <mxGeometry x="240" y="240" width="60" height="30" as="geometry" />
        </mxCell>
        <mxCell id="g8SryiDqKdlfWiKk7YuE-2" value="$$b$$" style="text;align=center;verticalAlign=middle;resizable=0;points=[];autosize=1;strokeColor=none;fillColor=none;html=1;" vertex="1" parent="1">
          <mxGeometry x="300" y="240" width="60" height="30" as="geometry" />
        </mxCell>
        <mxCell id="g8SryiDqKdlfWiKk7YuE-3" value="$$c$$" style="text;align=center;verticalAlign=middle;resizable=0;points=[];autosize=1;strokeColor=none;fillColor=none;html=1;" vertex="1" parent="1">
          <mxGeometry x="280" y="170" width="60" height="30" as="geometry" />
        </mxCell>
        <mxCell id="g8SryiDqKdlfWiKk7YuE-4" value="" style="rounded=1;orthogonalLoop=1;jettySize=auto;exitX=0.33;exitY=0;exitDx=0;exitDy=0;exitPerimeter=0;strokeWidth=2;endArrow=classic;endFill=1;curved=0;jumpStyle=gap;html=1;" edge="1" source="g8SryiDqKdlfWiKk7YuE-6" parent="1">
          <mxGeometry relative="1" as="geometry">
            <mxPoint x="280" y="280" as="targetPoint" />
            <Array as="points" />
          </mxGeometry>
        </mxCell>
        <mxCell id="g8SryiDqKdlfWiKk7YuE-5" value="" style="edgeStyle=orthogonalEdgeStyle;rounded=0;orthogonalLoop=1;jettySize=auto;strokeColor=default;strokeWidth=2;align=center;verticalAlign=middle;fontFamily=Helvetica;fontSize=11;fontColor=default;labelBackgroundColor=default;endArrow=classic;endFill=1;entryX=0.5;entryY=1;entryDx=0;entryDy=0;entryPerimeter=0;html=1;" edge="1" target="g8SryiDqKdlfWiKk7YuE-6" parent="1">
          <mxGeometry relative="1" as="geometry">
            <mxPoint x="300" y="180" as="sourcePoint" />
          </mxGeometry>
        </mxCell>
        <mxCell id="g8SryiDqKdlfWiKk7YuE-7" value="" style="rounded=1;orthogonalLoop=1;jettySize=auto;exitX=0.67;exitY=0;exitDx=0;exitDy=0;exitPerimeter=0;strokeWidth=2;endArrow=classic;endFill=1;curved=0;jumpStyle=gap;html=1;" edge="1" source="g8SryiDqKdlfWiKk7YuE-6" parent="1">
          <mxGeometry relative="1" as="geometry">
            <mxPoint x="320" y="280" as="targetPoint" />
            <mxPoint x="313" y="240" as="sourcePoint" />
            <Array as="points" />
          </mxGeometry>
        </mxCell>
        <mxCell id="g8SryiDqKdlfWiKk7YuE-6" value="" style="verticalLabelPosition=bottom;verticalAlign=top;shape=mxgraph.basic.half_circle;fontFamily=Helvetica;fontSize=11;labelBackgroundColor=default;fillColor=#e1d5e7;strokeColor=#9673a6;flipV=1;points=[[0.33,0,0,0,0],[0.5,1,0,0,0],[0.67,0,0,0,0]];html=1;" vertex="1" parent="1">
          <mxGeometry x="280" y="210" width="40" height="20" as="geometry" />
        </mxCell>
        <mxCell id="g8SryiDqKdlfWiKk7YuE-8" value="$$\mu$$" style="text;align=center;verticalAlign=middle;resizable=0;points=[];autosize=1;strokeColor=none;fillColor=none;fontFamily=Helvetica;fontSize=11;fontColor=default;labelBackgroundColor=none;html=1;" vertex="1" parent="1">
          <mxGeometry x="265" y="205" width="70" height="30" as="geometry" />
        </mxCell>
      </root>
    </mxGraphModel>
  </diagram>
  <diagram id="X1JS_sGEjoeNZl5hyUHn" name="Page-2">
    <mxGraphModel dx="458" dy="312" grid="1" gridSize="5" guides="1" tooltips="1" connect="1" arrows="1" fold="1" page="0" pageScale="1" pageWidth="827" pageHeight="1169" math="1" shadow="0">
      <root>
        <mxCell id="0" />
        <mxCell id="1" parent="0" />
        <mxCell id="0FvGkIZ0zPJf3csbZyQ--1" value="$$a$$" style="text;align=center;verticalAlign=middle;resizable=0;points=[];autosize=1;strokeColor=none;fillColor=none;html=1;" vertex="1" parent="1">
          <mxGeometry x="240" y="240" width="60" height="30" as="geometry" />
        </mxCell>
        <mxCell id="0FvGkIZ0zPJf3csbZyQ--2" value="$$b$$" style="text;align=center;verticalAlign=middle;resizable=0;points=[];autosize=1;strokeColor=none;fillColor=none;html=1;" vertex="1" parent="1">
          <mxGeometry x="300" y="240" width="60" height="30" as="geometry" />
        </mxCell>
        <mxCell id="0FvGkIZ0zPJf3csbZyQ--3" value="$$c$$" style="text;align=center;verticalAlign=middle;resizable=0;points=[];autosize=1;strokeColor=none;fillColor=none;html=1;" vertex="1" parent="1">
          <mxGeometry x="280" y="170" width="60" height="30" as="geometry" />
        </mxCell>
        <mxCell id="0FvGkIZ0zPJf3csbZyQ--4" value="" style="rounded=1;orthogonalLoop=1;jettySize=auto;exitX=0.33;exitY=0;exitDx=0;exitDy=0;exitPerimeter=0;strokeWidth=2;endArrow=classic;endFill=1;curved=0;jumpStyle=gap;html=1;entryX=0.5;entryY=1;entryDx=0;entryDy=0;entryPerimeter=0;" edge="1" parent="1" source="0FvGkIZ0zPJf3csbZyQ--7" target="0FvGkIZ0zPJf3csbZyQ--9">
          <mxGeometry relative="1" as="geometry">
            <mxPoint x="280" y="280" as="targetPoint" />
            <Array as="points" />
          </mxGeometry>
        </mxCell>
        <mxCell id="0FvGkIZ0zPJf3csbZyQ--5" value="" style="edgeStyle=orthogonalEdgeStyle;rounded=0;orthogonalLoop=1;jettySize=auto;strokeColor=default;strokeWidth=2;align=center;verticalAlign=middle;fontFamily=Helvetica;fontSize=11;fontColor=default;labelBackgroundColor=default;endArrow=classic;endFill=1;entryX=0.5;entryY=1;entryDx=0;entryDy=0;entryPerimeter=0;html=1;" edge="1" parent="1" target="0FvGkIZ0zPJf3csbZyQ--7">
          <mxGeometry relative="1" as="geometry">
            <mxPoint x="300" y="180" as="sourcePoint" />
          </mxGeometry>
        </mxCell>
        <mxCell id="0FvGkIZ0zPJf3csbZyQ--6" value="" style="rounded=1;orthogonalLoop=1;jettySize=auto;exitX=0.67;exitY=0;exitDx=0;exitDy=0;exitPerimeter=0;strokeWidth=2;endArrow=classic;endFill=1;curved=0;jumpStyle=gap;html=1;" edge="1" parent="1" source="0FvGkIZ0zPJf3csbZyQ--7">
          <mxGeometry relative="1" as="geometry">
            <mxPoint x="320" y="280" as="targetPoint" />
            <mxPoint x="313" y="240" as="sourcePoint" />
            <Array as="points" />
          </mxGeometry>
        </mxCell>
        <mxCell id="0FvGkIZ0zPJf3csbZyQ--7" value="" style="verticalLabelPosition=bottom;verticalAlign=top;shape=mxgraph.basic.half_circle;fontFamily=Helvetica;fontSize=11;labelBackgroundColor=default;fillColor=#e1d5e7;strokeColor=#9673a6;flipV=1;points=[[0.33,0,0,0,0],[0.5,1,0,0,0],[0.67,0,0,0,0]];html=1;" vertex="1" parent="1">
          <mxGeometry x="280" y="210" width="40" height="20" as="geometry" />
        </mxCell>
        <mxCell id="0FvGkIZ0zPJf3csbZyQ--8" value="$$\mu$$" style="text;align=center;verticalAlign=middle;resizable=0;points=[];autosize=1;strokeColor=none;fillColor=none;fontFamily=Helvetica;fontSize=11;fontColor=default;labelBackgroundColor=none;html=1;" vertex="1" parent="1">
          <mxGeometry x="265" y="205" width="70" height="30" as="geometry" />
        </mxCell>
        <mxCell id="0FvGkIZ0zPJf3csbZyQ--10" style="rounded=1;orthogonalLoop=1;jettySize=auto;html=1;exitX=0.33;exitY=0;exitDx=0;exitDy=0;exitPerimeter=0;strokeColor=default;strokeWidth=2;align=center;verticalAlign=middle;fontFamily=Helvetica;fontSize=11;fontColor=default;labelBackgroundColor=default;jumpStyle=gap;endArrow=classic;endFill=1;" edge="1" parent="1" source="0FvGkIZ0zPJf3csbZyQ--9">
          <mxGeometry relative="1" as="geometry">
            <mxPoint x="260" y="340" as="targetPoint" />
          </mxGeometry>
        </mxCell>
        <mxCell id="0FvGkIZ0zPJf3csbZyQ--11" style="edgeStyle=none;shape=connector;curved=0;rounded=1;jumpStyle=gap;orthogonalLoop=1;jettySize=auto;html=1;exitX=0.67;exitY=0;exitDx=0;exitDy=0;exitPerimeter=0;strokeColor=default;strokeWidth=2;align=center;verticalAlign=middle;fontFamily=Helvetica;fontSize=11;fontColor=default;labelBackgroundColor=default;endArrow=none;endFill=0;dashed=1;" edge="1" parent="1" source="0FvGkIZ0zPJf3csbZyQ--9">
          <mxGeometry relative="1" as="geometry">
            <mxPoint x="300" y="340" as="targetPoint" />
          </mxGeometry>
        </mxCell>
        <mxCell id="0FvGkIZ0zPJf3csbZyQ--9" value="" style="verticalLabelPosition=bottom;verticalAlign=top;shape=mxgraph.basic.half_circle;fontFamily=Helvetica;fontSize=11;labelBackgroundColor=default;fillColor=#e1d5e7;strokeColor=#9673a6;flipV=1;points=[[0.33,0,0,0,0],[0.5,1,0,0,0],[0.67,0,0,0,0]];html=1;" vertex="1" parent="1">
          <mxGeometry x="260" y="270" width="40" height="20" as="geometry" />
        </mxCell>
        <mxCell id="0FvGkIZ0zPJf3csbZyQ--12" value="$$a$$" style="text;align=center;verticalAlign=middle;resizable=0;points=[];autosize=1;strokeColor=none;fillColor=none;html=1;" vertex="1" parent="1">
          <mxGeometry x="225" y="300" width="60" height="30" as="geometry" />
        </mxCell>
        <mxCell id="0FvGkIZ0zPJf3csbZyQ--13" value="$$I$$" style="text;align=center;verticalAlign=middle;resizable=0;points=[];autosize=1;strokeColor=none;fillColor=none;html=1;" vertex="1" parent="1">
          <mxGeometry x="280" y="300" width="50" height="30" as="geometry" />
        </mxCell>
      </root>
    </mxGraphModel>
  </diagram>
  <diagram id="AQcq8Ss8BGX2Kwt3sl8I" name="Page-3">
    <mxGraphModel dx="383" dy="261" grid="1" gridSize="5" guides="1" tooltips="1" connect="1" arrows="1" fold="1" page="0" pageScale="1" pageWidth="827" pageHeight="1169" math="1" shadow="0">
      <root>
        <mxCell id="0" />
        <mxCell id="1" parent="0" />
        <mxCell id="jV1RZcht8cpFQsdjhVnr-1" value="$$a$$" style="text;align=center;verticalAlign=middle;resizable=0;points=[];autosize=1;strokeColor=none;fillColor=none;html=1;" vertex="1" parent="1">
          <mxGeometry x="245" y="240" width="60" height="30" as="geometry" />
        </mxCell>
        <mxCell id="jV1RZcht8cpFQsdjhVnr-2" value="$$b$$" style="text;align=center;verticalAlign=middle;resizable=0;points=[];autosize=1;strokeColor=none;fillColor=none;html=1;" vertex="1" parent="1">
          <mxGeometry x="300" y="240" width="60" height="30" as="geometry" />
        </mxCell>
        <mxCell id="jV1RZcht8cpFQsdjhVnr-3" value="$$c$$" style="text;align=center;verticalAlign=middle;resizable=0;points=[];autosize=1;strokeColor=none;fillColor=none;html=1;" vertex="1" parent="1">
          <mxGeometry x="280" y="170" width="60" height="30" as="geometry" />
        </mxCell>
        <mxCell id="jV1RZcht8cpFQsdjhVnr-4" value="" style="rounded=1;orthogonalLoop=1;jettySize=auto;exitX=0.33;exitY=0;exitDx=0;exitDy=0;exitPerimeter=0;strokeWidth=2;endArrow=classic;endFill=1;curved=0;jumpStyle=gap;html=1;" edge="1" parent="1" source="jV1RZcht8cpFQsdjhVnr-7">
          <mxGeometry relative="1" as="geometry">
            <mxPoint x="280" y="280" as="targetPoint" />
            <Array as="points" />
          </mxGeometry>
        </mxCell>
        <mxCell id="jV1RZcht8cpFQsdjhVnr-5" value="" style="edgeStyle=orthogonalEdgeStyle;rounded=0;orthogonalLoop=1;jettySize=auto;strokeColor=default;strokeWidth=2;align=center;verticalAlign=middle;fontFamily=Helvetica;fontSize=11;fontColor=default;labelBackgroundColor=default;endArrow=classic;endFill=1;entryX=0.5;entryY=1;entryDx=0;entryDy=0;entryPerimeter=0;html=1;" edge="1" parent="1" target="jV1RZcht8cpFQsdjhVnr-7">
          <mxGeometry relative="1" as="geometry">
            <mxPoint x="300" y="180" as="sourcePoint" />
          </mxGeometry>
        </mxCell>
        <mxCell id="jV1RZcht8cpFQsdjhVnr-6" value="" style="rounded=1;orthogonalLoop=1;jettySize=auto;exitX=0.67;exitY=0;exitDx=0;exitDy=0;exitPerimeter=0;strokeWidth=2;endArrow=classic;endFill=1;curved=0;jumpStyle=gap;html=1;entryX=0.5;entryY=1;entryDx=0;entryDy=0;entryPerimeter=0;" edge="1" parent="1" source="jV1RZcht8cpFQsdjhVnr-7" target="jV1RZcht8cpFQsdjhVnr-11">
          <mxGeometry relative="1" as="geometry">
            <mxPoint x="320" y="280" as="targetPoint" />
            <mxPoint x="313" y="240" as="sourcePoint" />
            <Array as="points" />
          </mxGeometry>
        </mxCell>
        <mxCell id="jV1RZcht8cpFQsdjhVnr-7" value="" style="verticalLabelPosition=bottom;verticalAlign=top;shape=mxgraph.basic.half_circle;fontFamily=Helvetica;fontSize=11;labelBackgroundColor=default;fillColor=#e1d5e7;strokeColor=#9673a6;flipV=1;points=[[0.33,0,0,0,0],[0.5,1,0,0,0],[0.67,0,0,0,0]];html=1;" vertex="1" parent="1">
          <mxGeometry x="280" y="210" width="40" height="20" as="geometry" />
        </mxCell>
        <mxCell id="jV1RZcht8cpFQsdjhVnr-8" value="$$\nu$$" style="text;align=center;verticalAlign=middle;resizable=0;points=[];autosize=1;strokeColor=none;fillColor=none;fontFamily=Helvetica;fontSize=11;fontColor=default;labelBackgroundColor=none;html=1;" vertex="1" parent="1">
          <mxGeometry x="270" y="205" width="60" height="30" as="geometry" />
        </mxCell>
        <mxCell id="jV1RZcht8cpFQsdjhVnr-9" style="rounded=1;orthogonalLoop=1;jettySize=auto;html=1;exitX=0.67;exitY=0;exitDx=0;exitDy=0;exitPerimeter=0;strokeColor=default;strokeWidth=2;align=center;verticalAlign=middle;fontFamily=Helvetica;fontSize=11;fontColor=default;labelBackgroundColor=default;jumpStyle=gap;endArrow=classic;endFill=1;" edge="1" parent="1" source="jV1RZcht8cpFQsdjhVnr-11">
          <mxGeometry relative="1" as="geometry">
            <mxPoint x="340" y="340" as="targetPoint" />
          </mxGeometry>
        </mxCell>
        <mxCell id="jV1RZcht8cpFQsdjhVnr-10" style="edgeStyle=none;shape=connector;curved=0;rounded=1;jumpStyle=gap;orthogonalLoop=1;jettySize=auto;html=1;exitX=0.33;exitY=0;exitDx=0;exitDy=0;exitPerimeter=0;strokeColor=default;strokeWidth=2;align=center;verticalAlign=middle;fontFamily=Helvetica;fontSize=11;fontColor=default;labelBackgroundColor=default;endArrow=none;endFill=0;dashed=1;" edge="1" parent="1" source="jV1RZcht8cpFQsdjhVnr-11">
          <mxGeometry relative="1" as="geometry">
            <mxPoint x="300" y="340" as="targetPoint" />
          </mxGeometry>
        </mxCell>
        <mxCell id="jV1RZcht8cpFQsdjhVnr-11" value="" style="verticalLabelPosition=bottom;verticalAlign=top;shape=mxgraph.basic.half_circle;fontFamily=Helvetica;fontSize=11;labelBackgroundColor=default;fillColor=#e1d5e7;strokeColor=#9673a6;flipV=1;points=[[0.33,0,0,0,0],[0.5,1,0,0,0],[0.67,0,0,0,0]];html=1;" vertex="1" parent="1">
          <mxGeometry x="300" y="270" width="40" height="20" as="geometry" />
        </mxCell>
        <mxCell id="jV1RZcht8cpFQsdjhVnr-12" value="$$b$$" style="text;align=center;verticalAlign=middle;resizable=0;points=[];autosize=1;strokeColor=none;fillColor=none;html=1;" vertex="1" parent="1">
          <mxGeometry x="318" y="300" width="55" height="30" as="geometry" />
        </mxCell>
        <mxCell id="jV1RZcht8cpFQsdjhVnr-13" value="$$I$$" style="text;align=center;verticalAlign=middle;resizable=0;points=[];autosize=1;strokeColor=none;fillColor=none;html=1;" vertex="1" parent="1">
          <mxGeometry x="270" y="300" width="50" height="30" as="geometry" />
        </mxCell>
      </root>
    </mxGraphModel>
  </diagram>
  <diagram id="2MrfbVNjxNGjrrTdlW1U" name="Page-4">
    <mxGraphModel dx="553" dy="377" grid="1" gridSize="5" guides="1" tooltips="1" connect="1" arrows="1" fold="1" page="0" pageScale="1" pageWidth="827" pageHeight="1169" math="1" shadow="0">
      <root>
        <mxCell id="0" />
        <mxCell id="1" parent="0" />
        <mxCell id="tfHCbeEAB2DlOH_9Gkgx-1" value="$$a$$" style="text;align=center;verticalAlign=middle;resizable=0;points=[];autosize=1;strokeColor=none;fillColor=none;html=1;" vertex="1" parent="1">
          <mxGeometry x="240" y="240" width="60" height="30" as="geometry" />
        </mxCell>
        <mxCell id="tfHCbeEAB2DlOH_9Gkgx-2" value="$$b$$" style="text;align=center;verticalAlign=middle;resizable=0;points=[];autosize=1;strokeColor=none;fillColor=none;html=1;" vertex="1" parent="1">
          <mxGeometry x="300" y="240" width="60" height="30" as="geometry" />
        </mxCell>
        <mxCell id="tfHCbeEAB2DlOH_9Gkgx-4" value="" style="rounded=1;orthogonalLoop=1;jettySize=auto;exitX=0.33;exitY=0;exitDx=0;exitDy=0;exitPerimeter=0;strokeWidth=2;endArrow=classic;endFill=1;curved=0;jumpStyle=gap;html=1;" edge="1" parent="1" source="tfHCbeEAB2DlOH_9Gkgx-7">
          <mxGeometry relative="1" as="geometry">
            <mxPoint x="280" y="280" as="targetPoint" />
            <Array as="points" />
          </mxGeometry>
        </mxCell>
        <mxCell id="tfHCbeEAB2DlOH_9Gkgx-6" value="" style="rounded=1;orthogonalLoop=1;jettySize=auto;exitX=0.67;exitY=0;exitDx=0;exitDy=0;exitPerimeter=0;strokeWidth=2;endArrow=classic;endFill=1;curved=0;jumpStyle=gap;html=1;" edge="1" parent="1" source="tfHCbeEAB2DlOH_9Gkgx-7">
          <mxGeometry relative="1" as="geometry">
            <mxPoint x="320" y="280" as="targetPoint" />
            <mxPoint x="313" y="240" as="sourcePoint" />
            <Array as="points" />
          </mxGeometry>
        </mxCell>
        <mxCell id="tfHCbeEAB2DlOH_9Gkgx-7" value="" style="verticalLabelPosition=bottom;verticalAlign=top;shape=mxgraph.basic.half_circle;fontFamily=Helvetica;fontSize=11;labelBackgroundColor=default;fillColor=#e1d5e7;strokeColor=#9673a6;flipV=1;points=[[0.33,0,0,0,0],[0.5,1,0,0,0],[0.67,0,0,0,0]];html=1;" vertex="1" parent="1">
          <mxGeometry x="280" y="210" width="40" height="20" as="geometry" />
        </mxCell>
        <mxCell id="tfHCbeEAB2DlOH_9Gkgx-8" value="$$\lambda$$" style="text;align=center;verticalAlign=middle;resizable=0;points=[];autosize=1;strokeColor=none;fillColor=none;fontFamily=Helvetica;fontSize=11;fontColor=default;labelBackgroundColor=none;html=1;" vertex="1" parent="1">
          <mxGeometry x="258" y="205" width="85" height="30" as="geometry" />
        </mxCell>
        <mxCell id="tfHCbeEAB2DlOH_9Gkgx-9" value="$$f$$" style="text;align=center;verticalAlign=middle;resizable=0;points=[];autosize=1;strokeColor=none;fillColor=none;html=1;" vertex="1" parent="1">
          <mxGeometry x="270" y="175" width="50" height="30" as="geometry" />
        </mxCell>
        <mxCell id="tfHCbeEAB2DlOH_9Gkgx-10" value="$$c$$" style="text;align=center;verticalAlign=middle;resizable=0;points=[];autosize=1;strokeColor=none;fillColor=none;html=1;" vertex="1" parent="1">
          <mxGeometry x="323" y="180" width="55" height="30" as="geometry" />
        </mxCell>
        <mxCell id="tfHCbeEAB2DlOH_9Gkgx-12" value="" style="rounded=1;orthogonalLoop=1;jettySize=auto;exitX=0.33;exitY=0;exitDx=0;exitDy=0;exitPerimeter=0;strokeWidth=2;endArrow=classic;endFill=1;curved=0;jumpStyle=gap;html=1;entryX=0.5;entryY=1;entryDx=0;entryDy=0;entryPerimeter=0;" edge="1" parent="1" source="tfHCbeEAB2DlOH_9Gkgx-15" target="tfHCbeEAB2DlOH_9Gkgx-7">
          <mxGeometry relative="1" as="geometry">
            <mxPoint x="300" y="190" as="targetPoint" />
            <Array as="points" />
          </mxGeometry>
        </mxCell>
        <mxCell id="tfHCbeEAB2DlOH_9Gkgx-14" value="" style="rounded=1;orthogonalLoop=1;jettySize=auto;exitX=0.67;exitY=0;exitDx=0;exitDy=0;exitPerimeter=0;strokeWidth=2;endArrow=classic;endFill=1;curved=0;jumpStyle=gap;html=1;" edge="1" parent="1" source="tfHCbeEAB2DlOH_9Gkgx-15">
          <mxGeometry relative="1" as="geometry">
            <mxPoint x="340" y="220" as="targetPoint" />
            <mxPoint x="333" y="180" as="sourcePoint" />
            <Array as="points" />
          </mxGeometry>
        </mxCell>
        <mxCell id="tfHCbeEAB2DlOH_9Gkgx-15" value="" style="verticalLabelPosition=bottom;verticalAlign=top;shape=mxgraph.basic.half_circle;fontFamily=Helvetica;fontSize=11;labelBackgroundColor=default;fillColor=#e1d5e7;strokeColor=#9673a6;flipV=1;points=[[0.33,0,0,0,0],[0.5,1,0,0,0],[0.67,0,0,0,0]];html=1;" vertex="1" parent="1">
          <mxGeometry x="300" y="150" width="40" height="20" as="geometry" />
        </mxCell>
        <mxCell id="tfHCbeEAB2DlOH_9Gkgx-16" value="$$\kappa$$" style="text;align=center;verticalAlign=middle;resizable=0;points=[];autosize=1;strokeColor=none;fillColor=none;fontFamily=Helvetica;fontSize=11;fontColor=default;labelBackgroundColor=none;html=1;" vertex="1" parent="1">
          <mxGeometry x="280" y="145" width="80" height="30" as="geometry" />
        </mxCell>
        <mxCell id="tfHCbeEAB2DlOH_9Gkgx-22" value="$$d$$" style="text;align=center;verticalAlign=middle;resizable=0;points=[];autosize=1;strokeColor=none;fillColor=none;html=1;" vertex="1" parent="1">
          <mxGeometry x="343" y="120" width="55" height="30" as="geometry" />
        </mxCell>
        <mxCell id="tfHCbeEAB2DlOH_9Gkgx-23" value="$$e$$" style="text;align=center;verticalAlign=middle;resizable=0;points=[];autosize=1;strokeColor=none;fillColor=none;html=1;" vertex="1" parent="1">
          <mxGeometry x="323" y="50" width="55" height="30" as="geometry" />
        </mxCell>
        <mxCell id="tfHCbeEAB2DlOH_9Gkgx-24" value="" style="rounded=1;orthogonalLoop=1;jettySize=auto;exitX=0.33;exitY=0;exitDx=0;exitDy=0;exitPerimeter=0;strokeWidth=2;endArrow=classic;endFill=1;curved=0;jumpStyle=gap;html=1;entryX=0.5;entryY=1;entryDx=0;entryDy=0;entryPerimeter=0;" edge="1" parent="1" source="tfHCbeEAB2DlOH_9Gkgx-27" target="tfHCbeEAB2DlOH_9Gkgx-15">
          <mxGeometry relative="1" as="geometry">
            <mxPoint x="300" y="130" as="targetPoint" />
            <Array as="points" />
          </mxGeometry>
        </mxCell>
        <mxCell id="tfHCbeEAB2DlOH_9Gkgx-25" value="" style="edgeStyle=orthogonalEdgeStyle;rounded=0;orthogonalLoop=1;jettySize=auto;strokeColor=default;strokeWidth=2;align=center;verticalAlign=middle;fontFamily=Helvetica;fontSize=11;fontColor=default;labelBackgroundColor=default;endArrow=classic;endFill=1;entryX=0.5;entryY=1;entryDx=0;entryDy=0;entryPerimeter=0;html=1;" edge="1" parent="1" target="tfHCbeEAB2DlOH_9Gkgx-27">
          <mxGeometry relative="1" as="geometry">
            <mxPoint x="340" y="60" as="sourcePoint" />
          </mxGeometry>
        </mxCell>
        <mxCell id="tfHCbeEAB2DlOH_9Gkgx-26" value="" style="rounded=1;orthogonalLoop=1;jettySize=auto;exitX=0.67;exitY=0;exitDx=0;exitDy=0;exitPerimeter=0;strokeWidth=2;endArrow=classic;endFill=1;curved=0;jumpStyle=gap;html=1;" edge="1" parent="1" source="tfHCbeEAB2DlOH_9Gkgx-27">
          <mxGeometry relative="1" as="geometry">
            <mxPoint x="360" y="160" as="targetPoint" />
            <mxPoint x="353" y="120" as="sourcePoint" />
            <Array as="points" />
          </mxGeometry>
        </mxCell>
        <mxCell id="tfHCbeEAB2DlOH_9Gkgx-27" value="" style="verticalLabelPosition=bottom;verticalAlign=top;shape=mxgraph.basic.half_circle;fontFamily=Helvetica;fontSize=11;labelBackgroundColor=default;fillColor=#e1d5e7;strokeColor=#9673a6;flipV=1;points=[[0.33,0,0,0,0],[0.5,1,0,0,0],[0.67,0,0,0,0]];html=1;" vertex="1" parent="1">
          <mxGeometry x="320" y="90" width="40" height="20" as="geometry" />
        </mxCell>
        <mxCell id="tfHCbeEAB2DlOH_9Gkgx-28" value="$$\mu$$" style="text;align=center;verticalAlign=middle;resizable=0;points=[];autosize=1;strokeColor=none;fillColor=none;fontFamily=Helvetica;fontSize=11;fontColor=default;labelBackgroundColor=none;html=1;" vertex="1" parent="1">
          <mxGeometry x="308" y="85" width="65" height="30" as="geometry" />
        </mxCell>
        <mxCell id="tfHCbeEAB2DlOH_9Gkgx-29" value="$$g$$" style="text;html=1;align=center;verticalAlign=middle;resizable=0;points=[];autosize=1;strokeColor=none;fillColor=none;fontFamily=Helvetica;fontSize=11;fontColor=default;labelBackgroundColor=none;" vertex="1" parent="1">
          <mxGeometry x="290" y="115" width="50" height="30" as="geometry" />
        </mxCell>
      </root>
    </mxGraphModel>
  </diagram>
  <diagram id="qk21ardFs2qDP0LrwOH2" name="Page-5">
    <mxGraphModel dx="463" dy="316" grid="1" gridSize="5" guides="1" tooltips="1" connect="1" arrows="1" fold="1" page="0" pageScale="1" pageWidth="827" pageHeight="1169" math="1" shadow="0">
      <root>
        <mxCell id="0" />
        <mxCell id="1" parent="0" />
        <mxCell id="mWRIWHreGwpFwrHinnpy-1" value="$$a$$" style="text;align=center;verticalAlign=middle;resizable=0;points=[];autosize=1;strokeColor=none;fillColor=none;html=1;" vertex="1" parent="1">
          <mxGeometry x="240" y="260" width="60" height="30" as="geometry" />
        </mxCell>
        <mxCell id="mWRIWHreGwpFwrHinnpy-2" value="$$b$$" style="text;align=center;verticalAlign=middle;resizable=0;points=[];autosize=1;strokeColor=none;fillColor=none;html=1;" vertex="1" parent="1">
          <mxGeometry x="275" y="260" width="60" height="30" as="geometry" />
        </mxCell>
        <mxCell id="mWRIWHreGwpFwrHinnpy-3" value="" style="rounded=1;orthogonalLoop=1;jettySize=auto;exitX=0.33;exitY=0;exitDx=0;exitDy=0;exitPerimeter=0;strokeWidth=2;endArrow=classic;endFill=1;curved=0;jumpStyle=gap;html=1;" edge="1" parent="1" source="mWRIWHreGwpFwrHinnpy-5">
          <mxGeometry relative="1" as="geometry">
            <mxPoint x="280" y="280" as="targetPoint" />
            <Array as="points" />
          </mxGeometry>
        </mxCell>
        <mxCell id="mWRIWHreGwpFwrHinnpy-4" value="" style="rounded=1;orthogonalLoop=1;jettySize=auto;exitX=0.67;exitY=0;exitDx=0;exitDy=0;exitPerimeter=0;strokeWidth=2;endArrow=classic;endFill=1;curved=0;jumpStyle=gap;html=1;" edge="1" parent="1" source="mWRIWHreGwpFwrHinnpy-5">
          <mxGeometry relative="1" as="geometry">
            <mxPoint x="320" y="280" as="targetPoint" />
            <mxPoint x="313" y="240" as="sourcePoint" />
            <Array as="points" />
          </mxGeometry>
        </mxCell>
        <mxCell id="mWRIWHreGwpFwrHinnpy-5" value="" style="verticalLabelPosition=bottom;verticalAlign=top;shape=mxgraph.basic.half_circle;fontFamily=Helvetica;fontSize=11;labelBackgroundColor=default;fillColor=#e1d5e7;strokeColor=#9673a6;flipV=1;points=[[0.33,0,0,0,0],[0.5,1,0,0,0],[0.67,0,0,0,0]];html=1;" vertex="1" parent="1">
          <mxGeometry x="280" y="220" width="40" height="20" as="geometry" />
        </mxCell>
        <mxCell id="mWRIWHreGwpFwrHinnpy-7" value="$$f$$" style="text;align=center;verticalAlign=middle;resizable=0;points=[];autosize=1;strokeColor=none;fillColor=none;html=1;" vertex="1" parent="1">
          <mxGeometry x="270" y="185" width="50" height="30" as="geometry" />
        </mxCell>
        <mxCell id="mWRIWHreGwpFwrHinnpy-8" value="$$c$$" style="text;align=center;verticalAlign=middle;resizable=0;points=[];autosize=1;strokeColor=none;fillColor=none;html=1;" vertex="1" parent="1">
          <mxGeometry x="325" y="260" width="55" height="30" as="geometry" />
        </mxCell>
        <mxCell id="mWRIWHreGwpFwrHinnpy-9" value="" style="rounded=1;orthogonalLoop=1;jettySize=auto;exitX=0.33;exitY=0;exitDx=0;exitDy=0;exitPerimeter=0;strokeWidth=2;endArrow=classic;endFill=1;curved=0;jumpStyle=gap;html=1;" edge="1" parent="1" source="mWRIWHreGwpFwrHinnpy-11">
          <mxGeometry relative="1" as="geometry">
            <mxPoint x="340" y="280" as="targetPoint" />
            <Array as="points" />
          </mxGeometry>
        </mxCell>
        <mxCell id="mWRIWHreGwpFwrHinnpy-10" value="" style="rounded=1;orthogonalLoop=1;jettySize=auto;exitX=0.67;exitY=0;exitDx=0;exitDy=0;exitPerimeter=0;strokeWidth=2;endArrow=classic;endFill=1;curved=0;jumpStyle=gap;html=1;" edge="1" parent="1" source="mWRIWHreGwpFwrHinnpy-11">
          <mxGeometry relative="1" as="geometry">
            <mxPoint x="380" y="280" as="targetPoint" />
            <mxPoint x="313" y="180" as="sourcePoint" />
            <Array as="points" />
          </mxGeometry>
        </mxCell>
        <mxCell id="mWRIWHreGwpFwrHinnpy-11" value="" style="verticalLabelPosition=bottom;verticalAlign=top;shape=mxgraph.basic.half_circle;fontFamily=Helvetica;fontSize=11;labelBackgroundColor=default;fillColor=#e1d5e7;strokeColor=#9673a6;flipV=1;points=[[0.33,0,0,0,0],[0.5,1,0,0,0],[0.67,0,0,0,0]];html=1;" vertex="1" parent="1">
          <mxGeometry x="340" y="220" width="40" height="20" as="geometry" />
        </mxCell>
        <mxCell id="mWRIWHreGwpFwrHinnpy-12" value="$$\kappa$$" style="text;align=center;verticalAlign=middle;resizable=0;points=[];autosize=1;strokeColor=none;fillColor=none;fontFamily=Helvetica;fontSize=11;fontColor=default;labelBackgroundColor=none;html=1;" vertex="1" parent="1">
          <mxGeometry x="260" y="215" width="80" height="30" as="geometry" />
        </mxCell>
        <mxCell id="mWRIWHreGwpFwrHinnpy-13" value="$$d$$" style="text;align=center;verticalAlign=middle;resizable=0;points=[];autosize=1;strokeColor=none;fillColor=none;html=1;" vertex="1" parent="1">
          <mxGeometry x="360" y="260" width="55" height="30" as="geometry" />
        </mxCell>
        <mxCell id="mWRIWHreGwpFwrHinnpy-14" value="$$e$$" style="text;align=center;verticalAlign=middle;resizable=0;points=[];autosize=1;strokeColor=none;fillColor=none;html=1;" vertex="1" parent="1">
          <mxGeometry x="310" y="135" width="55" height="30" as="geometry" />
        </mxCell>
        <mxCell id="mWRIWHreGwpFwrHinnpy-15" value="" style="rounded=1;orthogonalLoop=1;jettySize=auto;exitX=0.33;exitY=0;exitDx=0;exitDy=0;exitPerimeter=0;strokeWidth=2;endArrow=classic;endFill=1;curved=0;jumpStyle=gap;html=1;entryX=0.5;entryY=1;entryDx=0;entryDy=0;entryPerimeter=0;" edge="1" parent="1" source="mWRIWHreGwpFwrHinnpy-18" target="mWRIWHreGwpFwrHinnpy-5">
          <mxGeometry relative="1" as="geometry">
            <mxPoint x="305" y="140" as="targetPoint" />
            <Array as="points" />
          </mxGeometry>
        </mxCell>
        <mxCell id="mWRIWHreGwpFwrHinnpy-16" value="" style="edgeStyle=orthogonalEdgeStyle;rounded=0;orthogonalLoop=1;jettySize=auto;strokeColor=default;strokeWidth=2;align=center;verticalAlign=middle;fontFamily=Helvetica;fontSize=11;fontColor=default;labelBackgroundColor=default;endArrow=classic;endFill=1;entryX=0.5;entryY=1;entryDx=0;entryDy=0;entryPerimeter=0;html=1;" edge="1" parent="1" target="mWRIWHreGwpFwrHinnpy-18">
          <mxGeometry relative="1" as="geometry">
            <mxPoint x="330" y="140" as="sourcePoint" />
          </mxGeometry>
        </mxCell>
        <mxCell id="mWRIWHreGwpFwrHinnpy-17" value="" style="rounded=1;orthogonalLoop=1;jettySize=auto;exitX=0.67;exitY=0;exitDx=0;exitDy=0;exitPerimeter=0;strokeWidth=2;endArrow=classic;endFill=1;curved=0;jumpStyle=gap;html=1;entryX=0.5;entryY=1;entryDx=0;entryDy=0;entryPerimeter=0;" edge="1" parent="1" source="mWRIWHreGwpFwrHinnpy-18" target="mWRIWHreGwpFwrHinnpy-11">
          <mxGeometry relative="1" as="geometry">
            <mxPoint x="360" y="160" as="targetPoint" />
            <mxPoint x="353" y="120" as="sourcePoint" />
            <Array as="points" />
          </mxGeometry>
        </mxCell>
        <mxCell id="mWRIWHreGwpFwrHinnpy-18" value="" style="verticalLabelPosition=bottom;verticalAlign=top;shape=mxgraph.basic.half_circle;fontFamily=Helvetica;fontSize=11;labelBackgroundColor=default;fillColor=#e1d5e7;strokeColor=#9673a6;flipV=1;points=[[0.33,0,0,0,0],[0.5,1,0,0,0],[0.67,0,0,0,0]];html=1;" vertex="1" parent="1">
          <mxGeometry x="310" y="170" width="40" height="20" as="geometry" />
        </mxCell>
        <mxCell id="mWRIWHreGwpFwrHinnpy-19" value="$$\nu$$" style="text;align=center;verticalAlign=middle;resizable=0;points=[];autosize=1;strokeColor=none;fillColor=none;fontFamily=Helvetica;fontSize=11;fontColor=default;labelBackgroundColor=none;html=1;" vertex="1" parent="1">
          <mxGeometry x="330" y="215" width="60" height="30" as="geometry" />
        </mxCell>
        <mxCell id="mWRIWHreGwpFwrHinnpy-20" value="$$h$$" style="text;html=1;align=center;verticalAlign=middle;resizable=0;points=[];autosize=1;strokeColor=none;fillColor=none;fontFamily=Helvetica;fontSize=11;fontColor=default;labelBackgroundColor=none;" vertex="1" parent="1">
          <mxGeometry x="340" y="185" width="50" height="30" as="geometry" />
        </mxCell>
        <mxCell id="mWRIWHreGwpFwrHinnpy-21" style="edgeStyle=none;shape=connector;curved=0;rounded=1;jumpStyle=gap;orthogonalLoop=1;jettySize=auto;html=1;entryX=0.5;entryY=0;entryDx=0;entryDy=0;entryPerimeter=0;strokeColor=default;strokeWidth=2;align=center;verticalAlign=middle;fontFamily=Helvetica;fontSize=11;fontColor=default;labelBackgroundColor=default;endArrow=classic;endFill=1;" edge="1" parent="1" source="mWRIWHreGwpFwrHinnpy-12" target="mWRIWHreGwpFwrHinnpy-12">
          <mxGeometry relative="1" as="geometry" />
        </mxCell>
        <mxCell id="mWRIWHreGwpFwrHinnpy-6" value="$$\gamma$$" style="text;align=center;verticalAlign=middle;resizable=0;points=[];autosize=1;strokeColor=none;fillColor=none;fontFamily=Helvetica;fontSize=11;fontColor=default;labelBackgroundColor=none;html=1;" vertex="1" parent="1">
          <mxGeometry x="287.5" y="165" width="85" height="30" as="geometry" />
        </mxCell>
      </root>
    </mxGraphModel>
  </diagram>
  <diagram id="74DeGNZuAyisr9v6toa6" name="Page-6">
    <mxGraphModel dx="553" dy="377" grid="1" gridSize="5" guides="1" tooltips="1" connect="1" arrows="1" fold="1" page="0" pageScale="1" pageWidth="827" pageHeight="1169" math="1" shadow="0">
      <root>
        <mxCell id="0" />
        <mxCell id="1" parent="0" />
        <mxCell id="n_slDxwiqeQ6sIPM9SJn-1" value="$$a$$" style="text;align=center;verticalAlign=middle;resizable=0;points=[];autosize=1;strokeColor=none;fillColor=none;html=1;flipH=1;" vertex="1" parent="1">
          <mxGeometry x="280" y="140" width="60" height="30" as="geometry" />
        </mxCell>
        <mxCell id="n_slDxwiqeQ6sIPM9SJn-2" value="$$b$$" style="text;align=center;verticalAlign=middle;resizable=0;points=[];autosize=1;strokeColor=none;fillColor=none;html=1;flipH=1;" vertex="1" parent="1">
          <mxGeometry x="300" y="200" width="60" height="30" as="geometry" />
        </mxCell>
        <mxCell id="n_slDxwiqeQ6sIPM9SJn-3" value="" style="rounded=1;orthogonalLoop=1;jettySize=auto;exitX=0.33;exitY=0;exitDx=0;exitDy=0;exitPerimeter=0;strokeWidth=2;endArrow=classic;endFill=1;curved=0;jumpStyle=gap;html=1;" edge="1" parent="1" source="n_slDxwiqeQ6sIPM9SJn-5">
          <mxGeometry relative="1" as="geometry">
            <mxPoint x="400" y="280" as="targetPoint" />
            <Array as="points" />
          </mxGeometry>
        </mxCell>
        <mxCell id="n_slDxwiqeQ6sIPM9SJn-4" value="" style="rounded=1;orthogonalLoop=1;jettySize=auto;exitX=0.67;exitY=0;exitDx=0;exitDy=0;exitPerimeter=0;strokeWidth=2;endArrow=classic;endFill=1;curved=0;jumpStyle=gap;html=1;" edge="1" parent="1" source="n_slDxwiqeQ6sIPM9SJn-5">
          <mxGeometry relative="1" as="geometry">
            <mxPoint x="360" y="280" as="targetPoint" />
            <mxPoint x="313.79999999999995" y="240" as="sourcePoint" />
            <Array as="points" />
          </mxGeometry>
        </mxCell>
        <mxCell id="n_slDxwiqeQ6sIPM9SJn-5" value="" style="verticalLabelPosition=bottom;verticalAlign=top;shape=mxgraph.basic.half_circle;fontFamily=Helvetica;fontSize=11;labelBackgroundColor=default;fillColor=#e1d5e7;strokeColor=#9673a6;flipV=1;points=[[0.33,0,0,0,0],[0.5,1,0,0,0],[0.67,0,0,0,0]];html=1;flipH=1;" vertex="1" parent="1">
          <mxGeometry x="360" y="210" width="40" height="20" as="geometry" />
        </mxCell>
        <mxCell id="n_slDxwiqeQ6sIPM9SJn-7" value="$$h$$" style="text;align=center;verticalAlign=middle;resizable=0;points=[];autosize=1;strokeColor=none;fillColor=none;html=1;flipH=1;" vertex="1" parent="1">
          <mxGeometry x="355" y="170" width="55" height="30" as="geometry" />
        </mxCell>
        <mxCell id="n_slDxwiqeQ6sIPM9SJn-8" value="$$c$$" style="text;align=center;verticalAlign=middle;resizable=0;points=[];autosize=1;strokeColor=none;fillColor=none;html=1;flipH=1;" vertex="1" parent="1">
          <mxGeometry x="323" y="260" width="55" height="30" as="geometry" />
        </mxCell>
        <mxCell id="n_slDxwiqeQ6sIPM9SJn-9" value="" style="rounded=1;orthogonalLoop=1;jettySize=auto;exitX=0.33;exitY=0;exitDx=0;exitDy=0;exitPerimeter=0;strokeWidth=2;endArrow=classic;endFill=1;curved=0;jumpStyle=gap;html=1;entryX=0.5;entryY=1;entryDx=0;entryDy=0;entryPerimeter=0;" edge="1" parent="1" source="n_slDxwiqeQ6sIPM9SJn-11" target="n_slDxwiqeQ6sIPM9SJn-5">
          <mxGeometry relative="1" as="geometry">
            <mxPoint x="313.2000000000003" y="190" as="targetPoint" />
            <Array as="points" />
          </mxGeometry>
        </mxCell>
        <mxCell id="n_slDxwiqeQ6sIPM9SJn-10" value="" style="rounded=1;orthogonalLoop=1;jettySize=auto;exitX=0.67;exitY=0;exitDx=0;exitDy=0;exitPerimeter=0;strokeWidth=2;endArrow=classic;endFill=1;curved=0;jumpStyle=gap;html=1;" edge="1" parent="1" source="n_slDxwiqeQ6sIPM9SJn-11">
          <mxGeometry relative="1" as="geometry">
            <mxPoint x="340" y="220" as="targetPoint" />
            <mxPoint x="333.79999999999995" y="180" as="sourcePoint" />
            <Array as="points" />
          </mxGeometry>
        </mxCell>
        <mxCell id="n_slDxwiqeQ6sIPM9SJn-11" value="" style="verticalLabelPosition=bottom;verticalAlign=top;shape=mxgraph.basic.half_circle;fontFamily=Helvetica;fontSize=11;labelBackgroundColor=default;fillColor=#e1d5e7;strokeColor=#9673a6;flipV=1;points=[[0.33,0,0,0,0],[0.5,1,0,0,0],[0.67,0,0,0,0]];html=1;flipH=1;" vertex="1" parent="1">
          <mxGeometry x="340" y="150" width="40" height="20" as="geometry" />
        </mxCell>
        <mxCell id="n_slDxwiqeQ6sIPM9SJn-12" value="$$\nu$$" style="text;align=center;verticalAlign=middle;resizable=0;points=[];autosize=1;strokeColor=none;fillColor=none;fontFamily=Helvetica;fontSize=11;fontColor=default;labelBackgroundColor=none;html=1;flipH=1;" vertex="1" parent="1">
          <mxGeometry x="350" y="205" width="60" height="30" as="geometry" />
        </mxCell>
        <mxCell id="n_slDxwiqeQ6sIPM9SJn-13" value="$$d$$" style="text;align=center;verticalAlign=middle;resizable=0;points=[];autosize=1;strokeColor=none;fillColor=none;html=1;flipH=1;" vertex="1" parent="1">
          <mxGeometry x="380" y="260" width="55" height="30" as="geometry" />
        </mxCell>
        <mxCell id="n_slDxwiqeQ6sIPM9SJn-14" value="$$e$$" style="text;align=center;verticalAlign=middle;resizable=0;points=[];autosize=1;strokeColor=none;fillColor=none;html=1;flipH=1;" vertex="1" parent="1">
          <mxGeometry x="323" y="50" width="55" height="30" as="geometry" />
        </mxCell>
        <mxCell id="n_slDxwiqeQ6sIPM9SJn-15" value="" style="rounded=1;orthogonalLoop=1;jettySize=auto;exitX=0.33;exitY=0;exitDx=0;exitDy=0;exitPerimeter=0;strokeWidth=2;endArrow=classic;endFill=1;curved=0;jumpStyle=gap;html=1;entryX=0.5;entryY=1;entryDx=0;entryDy=0;entryPerimeter=0;" edge="1" parent="1" source="n_slDxwiqeQ6sIPM9SJn-18" target="n_slDxwiqeQ6sIPM9SJn-11">
          <mxGeometry relative="1" as="geometry">
            <mxPoint x="353.2000000000003" y="130" as="targetPoint" />
            <Array as="points" />
          </mxGeometry>
        </mxCell>
        <mxCell id="n_slDxwiqeQ6sIPM9SJn-16" value="" style="edgeStyle=orthogonalEdgeStyle;rounded=0;orthogonalLoop=1;jettySize=auto;strokeColor=default;strokeWidth=2;align=center;verticalAlign=middle;fontFamily=Helvetica;fontSize=11;fontColor=default;labelBackgroundColor=default;endArrow=classic;endFill=1;entryX=0.5;entryY=1;entryDx=0;entryDy=0;entryPerimeter=0;html=1;" edge="1" parent="1" target="n_slDxwiqeQ6sIPM9SJn-18">
          <mxGeometry relative="1" as="geometry">
            <mxPoint x="340.2777777777778" y="60" as="sourcePoint" />
          </mxGeometry>
        </mxCell>
        <mxCell id="n_slDxwiqeQ6sIPM9SJn-17" value="" style="rounded=1;orthogonalLoop=1;jettySize=auto;exitX=0.67;exitY=0;exitDx=0;exitDy=0;exitPerimeter=0;strokeWidth=2;endArrow=classic;endFill=1;curved=0;jumpStyle=gap;html=1;" edge="1" parent="1" source="n_slDxwiqeQ6sIPM9SJn-18">
          <mxGeometry relative="1" as="geometry">
            <mxPoint x="320" y="160" as="targetPoint" />
            <mxPoint x="353.79999999999995" y="120" as="sourcePoint" />
            <Array as="points" />
          </mxGeometry>
        </mxCell>
        <mxCell id="n_slDxwiqeQ6sIPM9SJn-18" value="" style="verticalLabelPosition=bottom;verticalAlign=top;shape=mxgraph.basic.half_circle;fontFamily=Helvetica;fontSize=11;labelBackgroundColor=default;fillColor=#e1d5e7;strokeColor=#9673a6;flipV=1;points=[[0.33,0,0,0,0],[0.5,1,0,0,0],[0.67,0,0,0,0]];html=1;flipH=1;" vertex="1" parent="1">
          <mxGeometry x="320" y="90" width="40" height="20" as="geometry" />
        </mxCell>
        <mxCell id="n_slDxwiqeQ6sIPM9SJn-19" value="$$\sigma$$" style="text;align=center;verticalAlign=middle;resizable=0;points=[];autosize=1;strokeColor=none;fillColor=none;fontFamily=Helvetica;fontSize=11;fontColor=default;labelBackgroundColor=none;html=1;flipH=1;" vertex="1" parent="1">
          <mxGeometry x="301" y="85" width="80" height="30" as="geometry" />
        </mxCell>
        <mxCell id="n_slDxwiqeQ6sIPM9SJn-20" value="$$i$$" style="text;html=1;align=center;verticalAlign=middle;resizable=0;points=[];autosize=1;strokeColor=none;fillColor=none;fontFamily=Helvetica;fontSize=11;fontColor=default;labelBackgroundColor=none;flipH=1;" vertex="1" parent="1">
          <mxGeometry x="335" y="110" width="50" height="30" as="geometry" />
        </mxCell>
        <mxCell id="n_slDxwiqeQ6sIPM9SJn-6" value="$$\rho$$" style="text;align=center;verticalAlign=middle;resizable=0;points=[];autosize=1;strokeColor=none;fillColor=none;fontFamily=Helvetica;fontSize=11;fontColor=default;labelBackgroundColor=none;html=1;flipH=1;" vertex="1" parent="1">
          <mxGeometry x="327.5" y="145" width="65" height="30" as="geometry" />
        </mxCell>
      </root>
    </mxGraphModel>
  </diagram>
  <diagram id="2izVfrsdUFIikdqC5dyh" name="Page-7">
    <mxGraphModel dx="458" dy="312" grid="1" gridSize="5" guides="1" tooltips="1" connect="1" arrows="1" fold="1" page="0" pageScale="1" pageWidth="827" pageHeight="1169" math="1" shadow="0">
      <root>
        <mxCell id="0" />
        <mxCell id="1" parent="0" />
        <mxCell id="sf6JUu-82vYGs2qG7O0W-1" value="$$a$$" style="text;align=center;verticalAlign=middle;resizable=0;points=[];autosize=1;strokeColor=none;fillColor=none;html=1;flipH=1;" vertex="1" parent="1">
          <mxGeometry x="260" y="200" width="60" height="30" as="geometry" />
        </mxCell>
        <mxCell id="sf6JUu-82vYGs2qG7O0W-2" value="$$b$$" style="text;align=center;verticalAlign=middle;resizable=0;points=[];autosize=1;strokeColor=none;fillColor=none;html=1;flipH=1;" vertex="1" parent="1">
          <mxGeometry x="280" y="260" width="60" height="30" as="geometry" />
        </mxCell>
        <mxCell id="sf6JUu-82vYGs2qG7O0W-3" value="" style="rounded=1;orthogonalLoop=1;jettySize=auto;exitX=0.33;exitY=0;exitDx=0;exitDy=0;exitPerimeter=0;strokeWidth=2;endArrow=classic;endFill=1;curved=0;jumpStyle=gap;html=1;" edge="1" parent="1" source="sf6JUu-82vYGs2qG7O0W-5">
          <mxGeometry relative="1" as="geometry">
            <mxPoint x="360" y="280" as="targetPoint" />
            <Array as="points" />
          </mxGeometry>
        </mxCell>
        <mxCell id="sf6JUu-82vYGs2qG7O0W-4" value="" style="rounded=1;orthogonalLoop=1;jettySize=auto;exitX=0.67;exitY=0;exitDx=0;exitDy=0;exitPerimeter=0;strokeWidth=2;endArrow=classic;endFill=1;curved=0;jumpStyle=gap;html=1;" edge="1" parent="1" source="sf6JUu-82vYGs2qG7O0W-5">
          <mxGeometry relative="1" as="geometry">
            <mxPoint x="320" y="280" as="targetPoint" />
            <mxPoint x="271.29999999999995" y="240" as="sourcePoint" />
            <Array as="points" />
          </mxGeometry>
        </mxCell>
        <mxCell id="sf6JUu-82vYGs2qG7O0W-5" value="" style="verticalLabelPosition=bottom;verticalAlign=top;shape=mxgraph.basic.half_circle;fontFamily=Helvetica;fontSize=11;labelBackgroundColor=default;fillColor=#e1d5e7;strokeColor=#9673a6;flipV=1;points=[[0.33,0,0,0,0],[0.5,1,0,0,0],[0.67,0,0,0,0]];html=1;flipH=1;" vertex="1" parent="1">
          <mxGeometry x="320" y="210" width="40" height="20" as="geometry" />
        </mxCell>
        <mxCell id="sf6JUu-82vYGs2qG7O0W-6" value="$$j$$" style="text;align=center;verticalAlign=middle;resizable=0;points=[];autosize=1;strokeColor=none;fillColor=none;html=1;flipH=1;" vertex="1" parent="1">
          <mxGeometry x="315" y="170" width="50" height="30" as="geometry" />
        </mxCell>
        <mxCell id="sf6JUu-82vYGs2qG7O0W-7" value="$$c$$" style="text;align=center;verticalAlign=middle;resizable=0;points=[];autosize=1;strokeColor=none;fillColor=none;html=1;flipH=1;" vertex="1" parent="1">
          <mxGeometry x="340" y="260" width="55" height="30" as="geometry" />
        </mxCell>
        <mxCell id="sf6JUu-82vYGs2qG7O0W-8" value="" style="rounded=1;orthogonalLoop=1;jettySize=auto;exitX=0.33;exitY=0;exitDx=0;exitDy=0;exitPerimeter=0;strokeWidth=2;endArrow=classic;endFill=1;curved=0;jumpStyle=gap;html=1;entryX=0.5;entryY=1;entryDx=0;entryDy=0;entryPerimeter=0;" edge="1" parent="1" source="sf6JUu-82vYGs2qG7O0W-10" target="sf6JUu-82vYGs2qG7O0W-5">
          <mxGeometry relative="1" as="geometry">
            <mxPoint x="340" y="220" as="targetPoint" />
            <Array as="points" />
          </mxGeometry>
        </mxCell>
        <mxCell id="sf6JUu-82vYGs2qG7O0W-9" value="" style="rounded=1;orthogonalLoop=1;jettySize=auto;exitX=0.67;exitY=0;exitDx=0;exitDy=0;exitPerimeter=0;strokeWidth=2;endArrow=classic;endFill=1;curved=0;jumpStyle=gap;html=1;" edge="1" parent="1" source="sf6JUu-82vYGs2qG7O0W-10">
          <mxGeometry relative="1" as="geometry">
            <mxPoint x="300" y="220" as="targetPoint" />
            <mxPoint x="333.79999999999995" y="180" as="sourcePoint" />
            <Array as="points" />
          </mxGeometry>
        </mxCell>
        <mxCell id="sf6JUu-82vYGs2qG7O0W-10" value="" style="verticalLabelPosition=bottom;verticalAlign=top;shape=mxgraph.basic.half_circle;fontFamily=Helvetica;fontSize=11;labelBackgroundColor=default;fillColor=#e1d5e7;strokeColor=#9673a6;flipV=1;points=[[0.33,0,0,0,0],[0.5,1,0,0,0],[0.67,0,0,0,0]];html=1;flipH=1;" vertex="1" parent="1">
          <mxGeometry x="300" y="150" width="40" height="20" as="geometry" />
        </mxCell>
        <mxCell id="sf6JUu-82vYGs2qG7O0W-11" value="$$\alpha$$" style="text;align=center;verticalAlign=middle;resizable=0;points=[];autosize=1;strokeColor=none;fillColor=none;fontFamily=Helvetica;fontSize=11;fontColor=default;labelBackgroundColor=none;html=1;flipH=1;" vertex="1" parent="1">
          <mxGeometry x="302.5" y="205" width="75" height="30" as="geometry" />
        </mxCell>
        <mxCell id="sf6JUu-82vYGs2qG7O0W-12" value="$$d$$" style="text;align=center;verticalAlign=middle;resizable=0;points=[];autosize=1;strokeColor=none;fillColor=none;html=1;flipH=1;" vertex="1" parent="1">
          <mxGeometry x="340" y="140" width="55" height="30" as="geometry" />
        </mxCell>
        <mxCell id="sf6JUu-82vYGs2qG7O0W-13" value="$$e$$" style="text;align=center;verticalAlign=middle;resizable=0;points=[];autosize=1;strokeColor=none;fillColor=none;html=1;flipH=1;" vertex="1" parent="1">
          <mxGeometry x="325" y="50" width="55" height="30" as="geometry" />
        </mxCell>
        <mxCell id="sf6JUu-82vYGs2qG7O0W-14" value="" style="rounded=1;orthogonalLoop=1;jettySize=auto;exitX=0.33;exitY=0;exitDx=0;exitDy=0;exitPerimeter=0;strokeWidth=2;endArrow=classic;endFill=1;curved=0;jumpStyle=gap;html=1;" edge="1" parent="1" source="sf6JUu-82vYGs2qG7O0W-17">
          <mxGeometry relative="1" as="geometry">
            <mxPoint x="360" y="160" as="targetPoint" />
            <Array as="points" />
          </mxGeometry>
        </mxCell>
        <mxCell id="sf6JUu-82vYGs2qG7O0W-15" value="" style="edgeStyle=orthogonalEdgeStyle;rounded=0;orthogonalLoop=1;jettySize=auto;strokeColor=default;strokeWidth=2;align=center;verticalAlign=middle;fontFamily=Helvetica;fontSize=11;fontColor=default;labelBackgroundColor=default;endArrow=classic;endFill=1;entryX=0.5;entryY=1;entryDx=0;entryDy=0;entryPerimeter=0;html=1;" edge="1" parent="1" target="sf6JUu-82vYGs2qG7O0W-17">
          <mxGeometry relative="1" as="geometry">
            <mxPoint x="340.2777777777778" y="60" as="sourcePoint" />
          </mxGeometry>
        </mxCell>
        <mxCell id="sf6JUu-82vYGs2qG7O0W-16" value="" style="rounded=1;orthogonalLoop=1;jettySize=auto;exitX=0.67;exitY=0;exitDx=0;exitDy=0;exitPerimeter=0;strokeWidth=2;endArrow=classic;endFill=1;curved=0;jumpStyle=gap;html=1;entryX=0.5;entryY=1;entryDx=0;entryDy=0;entryPerimeter=0;" edge="1" parent="1" source="sf6JUu-82vYGs2qG7O0W-17" target="sf6JUu-82vYGs2qG7O0W-10">
          <mxGeometry relative="1" as="geometry">
            <mxPoint x="320" y="160" as="targetPoint" />
            <mxPoint x="353.79999999999995" y="120" as="sourcePoint" />
            <Array as="points" />
          </mxGeometry>
        </mxCell>
        <mxCell id="sf6JUu-82vYGs2qG7O0W-17" value="" style="verticalLabelPosition=bottom;verticalAlign=top;shape=mxgraph.basic.half_circle;fontFamily=Helvetica;fontSize=11;labelBackgroundColor=default;fillColor=#e1d5e7;strokeColor=#9673a6;flipV=1;points=[[0.33,0,0,0,0],[0.5,1,0,0,0],[0.67,0,0,0,0]];html=1;flipH=1;" vertex="1" parent="1">
          <mxGeometry x="320" y="90" width="40" height="20" as="geometry" />
        </mxCell>
        <mxCell id="sf6JUu-82vYGs2qG7O0W-18" value="$$\mu$$" style="text;align=center;verticalAlign=middle;resizable=0;points=[];autosize=1;strokeColor=none;fillColor=none;fontFamily=Helvetica;fontSize=11;fontColor=default;labelBackgroundColor=none;html=1;flipH=1;" vertex="1" parent="1">
          <mxGeometry x="308" y="85" width="65" height="30" as="geometry" />
        </mxCell>
        <mxCell id="sf6JUu-82vYGs2qG7O0W-19" value="$$g$$" style="text;html=1;align=center;verticalAlign=middle;resizable=0;points=[];autosize=1;strokeColor=none;fillColor=none;fontFamily=Helvetica;fontSize=11;fontColor=default;labelBackgroundColor=none;flipH=1;" vertex="1" parent="1">
          <mxGeometry x="290" y="110" width="50" height="30" as="geometry" />
        </mxCell>
        <mxCell id="sf6JUu-82vYGs2qG7O0W-20" value="$$\beta$$" style="text;align=center;verticalAlign=middle;resizable=0;points=[];autosize=1;strokeColor=none;fillColor=none;fontFamily=Helvetica;fontSize=11;fontColor=default;labelBackgroundColor=none;html=1;flipH=1;" vertex="1" parent="1">
          <mxGeometry x="285" y="145" width="70" height="30" as="geometry" />
        </mxCell>
      </root>
    </mxGraphModel>
  </diagram>
  <diagram id="09Qfv9w4QP3pV-Dyu9_J" name="Page-8">
    <mxGraphModel dx="463" dy="316" grid="1" gridSize="5" guides="1" tooltips="1" connect="1" arrows="1" fold="1" page="0" pageScale="1" pageWidth="827" pageHeight="1169" math="1" shadow="0">
      <root>
        <mxCell id="0" />
        <mxCell id="1" parent="0" />
        <mxCell id="XZPmyM0tHjqso44Fckqp-1" value="$$a$$" style="text;align=center;verticalAlign=middle;resizable=0;points=[];autosize=1;strokeColor=none;fillColor=none;html=1;flipH=1;" vertex="1" parent="1">
          <mxGeometry x="280" y="140" width="60" height="30" as="geometry" />
        </mxCell>
        <mxCell id="XZPmyM0tHjqso44Fckqp-2" value="$$b$$" style="text;align=center;verticalAlign=middle;resizable=0;points=[];autosize=1;strokeColor=none;fillColor=none;html=1;flipH=1;" vertex="1" parent="1">
          <mxGeometry x="280" y="260" width="60" height="30" as="geometry" />
        </mxCell>
        <mxCell id="XZPmyM0tHjqso44Fckqp-3" value="" style="rounded=1;orthogonalLoop=1;jettySize=auto;exitX=0.33;exitY=0;exitDx=0;exitDy=0;exitPerimeter=0;strokeWidth=2;endArrow=classic;endFill=1;curved=0;jumpStyle=gap;html=1;" edge="1" parent="1" source="XZPmyM0tHjqso44Fckqp-5">
          <mxGeometry relative="1" as="geometry">
            <mxPoint x="360" y="280" as="targetPoint" />
            <Array as="points" />
          </mxGeometry>
        </mxCell>
        <mxCell id="XZPmyM0tHjqso44Fckqp-4" value="" style="rounded=1;orthogonalLoop=1;jettySize=auto;exitX=0.67;exitY=0;exitDx=0;exitDy=0;exitPerimeter=0;strokeWidth=2;endArrow=classic;endFill=1;curved=0;jumpStyle=gap;html=1;" edge="1" parent="1" source="XZPmyM0tHjqso44Fckqp-5">
          <mxGeometry relative="1" as="geometry">
            <mxPoint x="320" y="280" as="targetPoint" />
            <mxPoint x="313.79999999999995" y="240" as="sourcePoint" />
            <Array as="points" />
          </mxGeometry>
        </mxCell>
        <mxCell id="XZPmyM0tHjqso44Fckqp-5" value="" style="verticalLabelPosition=bottom;verticalAlign=top;shape=mxgraph.basic.half_circle;fontFamily=Helvetica;fontSize=11;labelBackgroundColor=default;fillColor=#e1d5e7;strokeColor=#9673a6;flipV=1;points=[[0.33,0,0,0,0],[0.5,1,0,0,0],[0.67,0,0,0,0]];html=1;flipH=1;" vertex="1" parent="1">
          <mxGeometry x="320" y="210" width="40" height="20" as="geometry" />
        </mxCell>
        <mxCell id="XZPmyM0tHjqso44Fckqp-6" value="$$j$$" style="text;align=center;verticalAlign=middle;resizable=0;points=[];autosize=1;strokeColor=none;fillColor=none;html=1;flipH=1;" vertex="1" parent="1">
          <mxGeometry x="310" y="170" width="50" height="30" as="geometry" />
        </mxCell>
        <mxCell id="XZPmyM0tHjqso44Fckqp-7" value="$$c$$" style="text;align=center;verticalAlign=middle;resizable=0;points=[];autosize=1;strokeColor=none;fillColor=none;html=1;flipH=1;" vertex="1" parent="1">
          <mxGeometry x="340" y="260" width="55" height="30" as="geometry" />
        </mxCell>
        <mxCell id="XZPmyM0tHjqso44Fckqp-8" value="" style="rounded=1;orthogonalLoop=1;jettySize=auto;exitX=0.33;exitY=0;exitDx=0;exitDy=0;exitPerimeter=0;strokeWidth=2;endArrow=classic;endFill=1;curved=0;jumpStyle=gap;html=1;" edge="1" parent="1" source="XZPmyM0tHjqso44Fckqp-10">
          <mxGeometry relative="1" as="geometry">
            <mxPoint x="380" y="220" as="targetPoint" />
            <Array as="points" />
          </mxGeometry>
        </mxCell>
        <mxCell id="XZPmyM0tHjqso44Fckqp-9" value="" style="rounded=1;orthogonalLoop=1;jettySize=auto;exitX=0.67;exitY=0;exitDx=0;exitDy=0;exitPerimeter=0;strokeWidth=2;endArrow=classic;endFill=1;curved=0;jumpStyle=gap;html=1;entryX=0.5;entryY=1;entryDx=0;entryDy=0;entryPerimeter=0;" edge="1" parent="1" source="XZPmyM0tHjqso44Fckqp-10" target="XZPmyM0tHjqso44Fckqp-5">
          <mxGeometry relative="1" as="geometry">
            <mxPoint x="340" y="220" as="targetPoint" />
            <mxPoint x="333.79999999999995" y="180" as="sourcePoint" />
            <Array as="points" />
          </mxGeometry>
        </mxCell>
        <mxCell id="XZPmyM0tHjqso44Fckqp-10" value="" style="verticalLabelPosition=bottom;verticalAlign=top;shape=mxgraph.basic.half_circle;fontFamily=Helvetica;fontSize=11;labelBackgroundColor=default;fillColor=#e1d5e7;strokeColor=#9673a6;flipV=1;points=[[0.33,0,0,0,0],[0.5,1,0,0,0],[0.67,0,0,0,0]];html=1;flipH=1;" vertex="1" parent="1">
          <mxGeometry x="340" y="150" width="40" height="20" as="geometry" />
        </mxCell>
        <mxCell id="XZPmyM0tHjqso44Fckqp-11" value="$$\alpha$$" style="text;align=center;verticalAlign=middle;resizable=0;points=[];autosize=1;strokeColor=none;fillColor=none;fontFamily=Helvetica;fontSize=11;fontColor=default;labelBackgroundColor=none;html=1;flipH=1;" vertex="1" parent="1">
          <mxGeometry x="302.5" y="205" width="75" height="30" as="geometry" />
        </mxCell>
        <mxCell id="XZPmyM0tHjqso44Fckqp-12" value="$$d$$" style="text;align=center;verticalAlign=middle;resizable=0;points=[];autosize=1;strokeColor=none;fillColor=none;html=1;flipH=1;" vertex="1" parent="1">
          <mxGeometry x="360" y="200" width="55" height="30" as="geometry" />
        </mxCell>
        <mxCell id="XZPmyM0tHjqso44Fckqp-13" value="$$e$$" style="text;align=center;verticalAlign=middle;resizable=0;points=[];autosize=1;strokeColor=none;fillColor=none;html=1;flipH=1;" vertex="1" parent="1">
          <mxGeometry x="325" y="50" width="55" height="30" as="geometry" />
        </mxCell>
        <mxCell id="XZPmyM0tHjqso44Fckqp-14" value="" style="rounded=1;orthogonalLoop=1;jettySize=auto;exitX=0.33;exitY=0;exitDx=0;exitDy=0;exitPerimeter=0;strokeWidth=2;endArrow=classic;endFill=1;curved=0;jumpStyle=gap;html=1;entryX=0.5;entryY=1;entryDx=0;entryDy=0;entryPerimeter=0;" edge="1" parent="1" source="XZPmyM0tHjqso44Fckqp-17" target="XZPmyM0tHjqso44Fckqp-10">
          <mxGeometry relative="1" as="geometry">
            <mxPoint x="353.2000000000003" y="130" as="targetPoint" />
            <Array as="points" />
          </mxGeometry>
        </mxCell>
        <mxCell id="XZPmyM0tHjqso44Fckqp-15" value="" style="edgeStyle=orthogonalEdgeStyle;rounded=0;orthogonalLoop=1;jettySize=auto;strokeColor=default;strokeWidth=2;align=center;verticalAlign=middle;fontFamily=Helvetica;fontSize=11;fontColor=default;labelBackgroundColor=default;endArrow=classic;endFill=1;entryX=0.5;entryY=1;entryDx=0;entryDy=0;entryPerimeter=0;html=1;" edge="1" parent="1" target="XZPmyM0tHjqso44Fckqp-17">
          <mxGeometry relative="1" as="geometry">
            <mxPoint x="340.2777777777778" y="60" as="sourcePoint" />
          </mxGeometry>
        </mxCell>
        <mxCell id="XZPmyM0tHjqso44Fckqp-16" value="" style="rounded=1;orthogonalLoop=1;jettySize=auto;exitX=0.67;exitY=0;exitDx=0;exitDy=0;exitPerimeter=0;strokeWidth=2;endArrow=classic;endFill=1;curved=0;jumpStyle=gap;html=1;" edge="1" parent="1" source="XZPmyM0tHjqso44Fckqp-17">
          <mxGeometry relative="1" as="geometry">
            <mxPoint x="320" y="160" as="targetPoint" />
            <mxPoint x="353.79999999999995" y="120" as="sourcePoint" />
            <Array as="points" />
          </mxGeometry>
        </mxCell>
        <mxCell id="XZPmyM0tHjqso44Fckqp-17" value="" style="verticalLabelPosition=bottom;verticalAlign=top;shape=mxgraph.basic.half_circle;fontFamily=Helvetica;fontSize=11;labelBackgroundColor=default;fillColor=#e1d5e7;strokeColor=#9673a6;flipV=1;points=[[0.33,0,0,0,0],[0.5,1,0,0,0],[0.67,0,0,0,0]];html=1;flipH=1;" vertex="1" parent="1">
          <mxGeometry x="320" y="90" width="40" height="20" as="geometry" />
        </mxCell>
        <mxCell id="XZPmyM0tHjqso44Fckqp-18" value="$$\sigma$$" style="text;align=center;verticalAlign=middle;resizable=0;points=[];autosize=1;strokeColor=none;fillColor=none;fontFamily=Helvetica;fontSize=11;fontColor=default;labelBackgroundColor=none;html=1;flipH=1;" vertex="1" parent="1">
          <mxGeometry x="300" y="85" width="80" height="30" as="geometry" />
        </mxCell>
        <mxCell id="XZPmyM0tHjqso44Fckqp-19" value="$$i$$" style="text;html=1;align=center;verticalAlign=middle;resizable=0;points=[];autosize=1;strokeColor=none;fillColor=none;fontFamily=Helvetica;fontSize=11;fontColor=default;labelBackgroundColor=none;flipH=1;" vertex="1" parent="1">
          <mxGeometry x="335" y="110" width="50" height="30" as="geometry" />
        </mxCell>
        <mxCell id="XZPmyM0tHjqso44Fckqp-20" value="$$\tau$$" style="text;align=center;verticalAlign=middle;resizable=0;points=[];autosize=1;strokeColor=none;fillColor=none;fontFamily=Helvetica;fontSize=11;fontColor=default;labelBackgroundColor=none;html=1;flipH=1;" vertex="1" parent="1">
          <mxGeometry x="327.5" y="145" width="65" height="30" as="geometry" />
        </mxCell>
      </root>
    </mxGraphModel>
  </diagram>
  <diagram id="B3yR0Vc8tq6x-KkViZpo" name="Page-9">
    <mxGraphModel dx="383" dy="261" grid="1" gridSize="5" guides="1" tooltips="1" connect="1" arrows="1" fold="1" page="0" pageScale="1" pageWidth="827" pageHeight="1169" math="1" shadow="0">
      <root>
        <mxCell id="0" />
        <mxCell id="1" parent="0" />
        <mxCell id="wG4O5YrsltCnM94Cs0f3-3" value="" style="edgeStyle=none;orthogonalLoop=1;jettySize=auto;html=1;rounded=0;strokeColor=default;strokeWidth=2;align=center;verticalAlign=middle;fontFamily=Helvetica;fontSize=11;fontColor=default;labelBackgroundColor=default;jumpStyle=gap;endArrow=none;endFill=0;curved=1;" edge="1" parent="1">
          <mxGeometry width="80" relative="1" as="geometry">
            <mxPoint x="100" y="180" as="sourcePoint" />
            <mxPoint x="140" y="200" as="targetPoint" />
            <Array as="points">
              <mxPoint x="100" y="200" />
              <mxPoint x="120" y="200" />
              <mxPoint x="120" y="180" />
              <mxPoint x="140" y="180" />
            </Array>
          </mxGeometry>
        </mxCell>
        <mxCell id="wG4O5YrsltCnM94Cs0f3-4" value="" style="edgeStyle=none;orthogonalLoop=1;jettySize=auto;html=1;rounded=1;strokeColor=default;strokeWidth=2;align=center;verticalAlign=middle;fontFamily=Helvetica;fontSize=11;fontColor=default;labelBackgroundColor=default;jumpStyle=gap;endArrow=classic;endFill=1;curved=0;" edge="1" parent="1">
          <mxGeometry width="100" relative="1" as="geometry">
            <mxPoint x="100" y="150" as="sourcePoint" />
            <mxPoint x="100" y="175" as="targetPoint" />
            <Array as="points" />
          </mxGeometry>
        </mxCell>
        <mxCell id="wG4O5YrsltCnM94Cs0f3-5" value="" style="edgeStyle=none;orthogonalLoop=1;jettySize=auto;html=1;rounded=1;strokeColor=default;strokeWidth=2;align=center;verticalAlign=middle;fontFamily=Helvetica;fontSize=11;fontColor=default;labelBackgroundColor=default;jumpStyle=gap;endArrow=classic;endFill=1;curved=0;" edge="1" parent="1">
          <mxGeometry width="100" relative="1" as="geometry">
            <mxPoint x="140" y="200" as="sourcePoint" />
            <mxPoint x="140" y="215" as="targetPoint" />
            <Array as="points" />
          </mxGeometry>
        </mxCell>
        <mxCell id="wG4O5YrsltCnM94Cs0f3-6" value="" style="edgeStyle=none;orthogonalLoop=1;jettySize=auto;html=1;rounded=1;strokeColor=default;strokeWidth=2;align=center;verticalAlign=middle;fontFamily=Helvetica;fontSize=11;fontColor=default;labelBackgroundColor=default;jumpStyle=gap;endArrow=none;endFill=0;curved=0;" edge="1" parent="1">
          <mxGeometry width="80" relative="1" as="geometry">
            <mxPoint x="140" y="210" as="sourcePoint" />
            <mxPoint x="140" y="230" as="targetPoint" />
            <Array as="points" />
          </mxGeometry>
        </mxCell>
        <mxCell id="wG4O5YrsltCnM94Cs0f3-7" value="" style="edgeStyle=none;orthogonalLoop=1;jettySize=auto;html=1;rounded=1;strokeColor=default;strokeWidth=2;align=center;verticalAlign=middle;fontFamily=Helvetica;fontSize=11;fontColor=default;labelBackgroundColor=default;jumpStyle=gap;endArrow=none;endFill=0;curved=0;" edge="1" parent="1">
          <mxGeometry width="80" relative="1" as="geometry">
            <mxPoint x="100" y="160" as="sourcePoint" />
            <mxPoint x="100" y="180" as="targetPoint" />
            <Array as="points" />
          </mxGeometry>
        </mxCell>
      </root>
    </mxGraphModel>
  </diagram>
  <diagram id="bylUoG0QP8cRPUfwGVT2" name="Page-10">
    <mxGraphModel dx="185" dy="126" grid="1" gridSize="5" guides="1" tooltips="1" connect="1" arrows="1" fold="1" page="0" pageScale="1" pageWidth="827" pageHeight="1169" math="1" shadow="0">
      <root>
        <mxCell id="0" />
        <mxCell id="1" parent="0" />
        <mxCell id="IAFKcC1bPFqz2ezj5Zx7-1" value="" style="edgeStyle=none;orthogonalLoop=1;jettySize=auto;html=1;rounded=0;strokeColor=default;strokeWidth=2;align=center;verticalAlign=middle;fontFamily=Helvetica;fontSize=11;fontColor=default;labelBackgroundColor=default;jumpStyle=gap;endArrow=none;endFill=0;curved=1;" edge="1" parent="1">
          <mxGeometry width="80" relative="1" as="geometry">
            <mxPoint x="100" y="200" as="sourcePoint" />
            <mxPoint x="140" y="180" as="targetPoint" />
            <Array as="points">
              <mxPoint x="100" y="180" />
              <mxPoint x="120" y="180" />
              <mxPoint x="120" y="200" />
              <mxPoint x="140" y="200" />
            </Array>
          </mxGeometry>
        </mxCell>
        <mxCell id="IAFKcC1bPFqz2ezj5Zx7-2" value="" style="edgeStyle=none;orthogonalLoop=1;jettySize=auto;html=1;rounded=1;strokeColor=default;strokeWidth=2;align=center;verticalAlign=middle;fontFamily=Helvetica;fontSize=11;fontColor=default;labelBackgroundColor=default;jumpStyle=gap;endArrow=classic;endFill=1;curved=0;" edge="1" parent="1">
          <mxGeometry width="100" relative="1" as="geometry">
            <mxPoint x="100" y="230" as="sourcePoint" />
            <mxPoint x="100" y="205" as="targetPoint" />
            <Array as="points" />
          </mxGeometry>
        </mxCell>
        <mxCell id="IAFKcC1bPFqz2ezj5Zx7-3" value="" style="edgeStyle=none;orthogonalLoop=1;jettySize=auto;html=1;rounded=1;strokeColor=default;strokeWidth=2;align=center;verticalAlign=middle;fontFamily=Helvetica;fontSize=11;fontColor=default;labelBackgroundColor=default;jumpStyle=gap;endArrow=classic;endFill=1;curved=0;" edge="1" parent="1">
          <mxGeometry width="100" relative="1" as="geometry">
            <mxPoint x="140" y="180" as="sourcePoint" />
            <mxPoint x="140" y="165" as="targetPoint" />
            <Array as="points" />
          </mxGeometry>
        </mxCell>
        <mxCell id="IAFKcC1bPFqz2ezj5Zx7-4" value="" style="edgeStyle=none;orthogonalLoop=1;jettySize=auto;html=1;rounded=1;strokeColor=default;strokeWidth=2;align=center;verticalAlign=middle;fontFamily=Helvetica;fontSize=11;fontColor=default;labelBackgroundColor=default;jumpStyle=gap;endArrow=none;endFill=0;curved=0;" edge="1" parent="1">
          <mxGeometry width="80" relative="1" as="geometry">
            <mxPoint x="140" y="180" as="sourcePoint" />
            <mxPoint x="140" y="150" as="targetPoint" />
            <Array as="points" />
          </mxGeometry>
        </mxCell>
        <mxCell id="IAFKcC1bPFqz2ezj5Zx7-5" value="" style="edgeStyle=none;orthogonalLoop=1;jettySize=auto;html=1;rounded=1;strokeColor=default;strokeWidth=2;align=center;verticalAlign=middle;fontFamily=Helvetica;fontSize=11;fontColor=default;labelBackgroundColor=default;jumpStyle=gap;endArrow=none;endFill=0;curved=0;" edge="1" parent="1">
          <mxGeometry width="80" relative="1" as="geometry">
            <mxPoint x="100" y="220" as="sourcePoint" />
            <mxPoint x="100" y="200" as="targetPoint" />
            <Array as="points" />
          </mxGeometry>
        </mxCell>
      </root>
    </mxGraphModel>
  </diagram>
  <diagram id="9hYAyl-75K8rnBoBJ34y" name="Page-11">
    <mxGraphModel dx="267" dy="182" grid="1" gridSize="5" guides="1" tooltips="1" connect="1" arrows="1" fold="1" page="0" pageScale="1" pageWidth="827" pageHeight="1169" math="1" shadow="0">
      <root>
        <mxCell id="0" />
        <mxCell id="1" parent="0" />
        <mxCell id="5l7TDNpEOXikEKTeQHqT-5" value="" style="edgeStyle=none;orthogonalLoop=1;jettySize=auto;html=1;rounded=1;strokeColor=default;strokeWidth=2;align=center;verticalAlign=middle;fontFamily=Helvetica;fontSize=11;fontColor=default;labelBackgroundColor=default;jumpStyle=gap;endArrow=none;endFill=0;curved=0;" edge="1" parent="1">
          <mxGeometry width="80" relative="1" as="geometry">
            <mxPoint x="100" y="230" as="sourcePoint" />
            <mxPoint x="100" y="150" as="targetPoint" />
            <Array as="points" />
          </mxGeometry>
        </mxCell>
        <mxCell id="5l7TDNpEOXikEKTeQHqT-6" value="" style="edgeStyle=none;orthogonalLoop=1;jettySize=auto;html=1;rounded=1;strokeColor=default;strokeWidth=2;align=center;verticalAlign=middle;fontFamily=Helvetica;fontSize=11;fontColor=default;labelBackgroundColor=default;jumpStyle=gap;endArrow=classic;endFill=1;curved=0;" edge="1" parent="1">
          <mxGeometry width="80" relative="1" as="geometry">
            <mxPoint x="100" y="200" as="sourcePoint" />
            <mxPoint x="100" y="185" as="targetPoint" />
            <Array as="points" />
          </mxGeometry>
        </mxCell>
      </root>
    </mxGraphModel>
  </diagram>
  <diagram id="x7rxj5qVRoZju-bb-CXJ" name="Page-12">
    <mxGraphModel dx="463" dy="316" grid="1" gridSize="5" guides="1" tooltips="1" connect="1" arrows="1" fold="1" page="0" pageScale="1" pageWidth="827" pageHeight="1169" math="1" shadow="0">
      <root>
        <mxCell id="0" />
        <mxCell id="1" parent="0" />
        <mxCell id="y2eE9CVivCnqwE8yA4_1-1" value="" style="edgeStyle=none;orthogonalLoop=1;jettySize=auto;html=1;rounded=1;strokeColor=default;strokeWidth=2;align=center;verticalAlign=middle;fontFamily=Helvetica;fontSize=11;fontColor=default;labelBackgroundColor=default;jumpStyle=gap;endArrow=none;endFill=0;curved=0;" edge="1" parent="1">
          <mxGeometry width="80" relative="1" as="geometry">
            <mxPoint x="100" y="150" as="sourcePoint" />
            <mxPoint x="100" y="230" as="targetPoint" />
            <Array as="points" />
          </mxGeometry>
        </mxCell>
        <mxCell id="y2eE9CVivCnqwE8yA4_1-2" value="" style="edgeStyle=none;orthogonalLoop=1;jettySize=auto;html=1;rounded=1;strokeColor=default;strokeWidth=2;align=center;verticalAlign=middle;fontFamily=Helvetica;fontSize=11;fontColor=default;labelBackgroundColor=default;jumpStyle=gap;endArrow=classic;endFill=1;curved=0;" edge="1" parent="1">
          <mxGeometry width="80" relative="1" as="geometry">
            <mxPoint x="100" y="180" as="sourcePoint" />
            <mxPoint x="100" y="195" as="targetPoint" />
            <Array as="points" />
          </mxGeometry>
        </mxCell>
      </root>
    </mxGraphModel>
  </diagram>
  <diagram id="ZDnGqDqGQmZkQveCeaQf" name="Page-13">
    <mxGraphModel dx="1193" dy="1198" grid="1" gridSize="5" guides="1" tooltips="1" connect="1" arrows="1" fold="1" page="0" pageScale="1" pageWidth="827" pageHeight="1169" math="1" shadow="0">
      <root>
        <mxCell id="0" />
        <mxCell id="1" parent="0" />
        <mxCell id="iPEIkR3rJKuhgTKZMwWM-1" value="" style="edgeStyle=none;orthogonalLoop=1;jettySize=auto;html=1;rounded=0;strokeColor=default;strokeWidth=2;align=center;verticalAlign=middle;fontFamily=Helvetica;fontSize=11;fontColor=default;labelBackgroundColor=default;jumpStyle=gap;endArrow=none;endFill=0;curved=1;" parent="1" edge="1">
          <mxGeometry width="80" relative="1" as="geometry">
            <mxPoint x="100" y="180" as="sourcePoint" />
            <mxPoint x="140" y="200" as="targetPoint" />
            <Array as="points">
              <mxPoint x="100" y="200" />
              <mxPoint x="120" y="200" />
              <mxPoint x="120" y="180" />
              <mxPoint x="140" y="180" />
            </Array>
          </mxGeometry>
        </mxCell>
        <mxCell id="iPEIkR3rJKuhgTKZMwWM-2" value="" style="edgeStyle=none;orthogonalLoop=1;jettySize=auto;html=1;rounded=1;strokeColor=default;strokeWidth=2;align=center;verticalAlign=middle;fontFamily=Helvetica;fontSize=11;fontColor=default;labelBackgroundColor=default;jumpStyle=gap;endArrow=classic;endFill=1;curved=0;" parent="1" edge="1">
          <mxGeometry width="100" relative="1" as="geometry">
            <mxPoint x="100" y="175" as="sourcePoint" />
            <mxPoint x="100" y="165" as="targetPoint" />
            <Array as="points" />
          </mxGeometry>
        </mxCell>
        <mxCell id="iPEIkR3rJKuhgTKZMwWM-3" value="" style="edgeStyle=none;orthogonalLoop=1;jettySize=auto;html=1;rounded=1;strokeColor=default;strokeWidth=2;align=center;verticalAlign=middle;fontFamily=Helvetica;fontSize=11;fontColor=default;labelBackgroundColor=default;jumpStyle=gap;endArrow=classic;endFill=1;curved=0;" parent="1" edge="1">
          <mxGeometry width="100" relative="1" as="geometry">
            <mxPoint x="140" y="220" as="sourcePoint" />
            <mxPoint x="140" y="205" as="targetPoint" />
            <Array as="points" />
          </mxGeometry>
        </mxCell>
        <mxCell id="iPEIkR3rJKuhgTKZMwWM-4" value="" style="edgeStyle=none;orthogonalLoop=1;jettySize=auto;html=1;rounded=1;strokeColor=default;strokeWidth=2;align=center;verticalAlign=middle;fontFamily=Helvetica;fontSize=11;fontColor=default;labelBackgroundColor=default;jumpStyle=gap;endArrow=none;endFill=0;curved=0;" parent="1" edge="1">
          <mxGeometry width="80" relative="1" as="geometry">
            <mxPoint x="140" y="200" as="sourcePoint" />
            <mxPoint x="140" y="230" as="targetPoint" />
            <Array as="points" />
          </mxGeometry>
        </mxCell>
        <mxCell id="iPEIkR3rJKuhgTKZMwWM-5" value="" style="edgeStyle=none;orthogonalLoop=1;jettySize=auto;html=1;rounded=1;strokeColor=default;strokeWidth=2;align=center;verticalAlign=middle;fontFamily=Helvetica;fontSize=11;fontColor=default;labelBackgroundColor=default;jumpStyle=gap;endArrow=none;endFill=0;curved=0;" parent="1" edge="1">
          <mxGeometry width="80" relative="1" as="geometry">
            <mxPoint x="100" y="150" as="sourcePoint" />
            <mxPoint x="100" y="180" as="targetPoint" />
            <Array as="points" />
          </mxGeometry>
        </mxCell>
      </root>
    </mxGraphModel>
  </diagram>
  <diagram id="alfHdnuWvsunxyXh6tue" name="Page-14">
    <mxGraphModel dx="321" dy="219" grid="1" gridSize="5" guides="1" tooltips="1" connect="1" arrows="1" fold="1" page="0" pageScale="1" pageWidth="827" pageHeight="1169" math="1" shadow="0">
      <root>
        <mxCell id="0" />
        <mxCell id="1" parent="0" />
        <mxCell id="w43nFwl-0FJ9fozatgcY-1" value="" style="edgeStyle=none;orthogonalLoop=1;jettySize=auto;html=1;rounded=0;strokeColor=default;strokeWidth=2;align=center;verticalAlign=middle;fontFamily=Helvetica;fontSize=11;fontColor=default;labelBackgroundColor=default;jumpStyle=gap;endArrow=none;endFill=0;curved=1;" edge="1" parent="1">
          <mxGeometry width="80" relative="1" as="geometry">
            <mxPoint x="100" y="200" as="sourcePoint" />
            <mxPoint x="140" y="180" as="targetPoint" />
            <Array as="points">
              <mxPoint x="100" y="180" />
              <mxPoint x="120" y="180" />
              <mxPoint x="120" y="200" />
              <mxPoint x="140" y="200" />
            </Array>
          </mxGeometry>
        </mxCell>
        <mxCell id="w43nFwl-0FJ9fozatgcY-2" value="" style="edgeStyle=none;orthogonalLoop=1;jettySize=auto;html=1;rounded=1;strokeColor=default;strokeWidth=2;align=center;verticalAlign=middle;fontFamily=Helvetica;fontSize=11;fontColor=default;labelBackgroundColor=default;jumpStyle=gap;endArrow=classic;endFill=1;curved=0;" edge="1" parent="1">
          <mxGeometry width="100" relative="1" as="geometry">
            <mxPoint x="100" y="205" as="sourcePoint" />
            <mxPoint x="100" y="215" as="targetPoint" />
            <Array as="points" />
          </mxGeometry>
        </mxCell>
        <mxCell id="w43nFwl-0FJ9fozatgcY-3" value="" style="edgeStyle=none;orthogonalLoop=1;jettySize=auto;html=1;rounded=1;strokeColor=default;strokeWidth=2;align=center;verticalAlign=middle;fontFamily=Helvetica;fontSize=11;fontColor=default;labelBackgroundColor=default;jumpStyle=gap;endArrow=classic;endFill=1;curved=0;" edge="1" parent="1">
          <mxGeometry width="100" relative="1" as="geometry">
            <mxPoint x="140" y="160" as="sourcePoint" />
            <mxPoint x="140" y="175" as="targetPoint" />
            <Array as="points" />
          </mxGeometry>
        </mxCell>
        <mxCell id="w43nFwl-0FJ9fozatgcY-4" value="" style="edgeStyle=none;orthogonalLoop=1;jettySize=auto;html=1;rounded=1;strokeColor=default;strokeWidth=2;align=center;verticalAlign=middle;fontFamily=Helvetica;fontSize=11;fontColor=default;labelBackgroundColor=default;jumpStyle=gap;endArrow=none;endFill=0;curved=0;" edge="1" parent="1">
          <mxGeometry width="80" relative="1" as="geometry">
            <mxPoint x="140" y="150" as="sourcePoint" />
            <mxPoint x="140" y="180" as="targetPoint" />
            <Array as="points" />
          </mxGeometry>
        </mxCell>
        <mxCell id="w43nFwl-0FJ9fozatgcY-5" value="" style="edgeStyle=none;orthogonalLoop=1;jettySize=auto;html=1;rounded=1;strokeColor=default;strokeWidth=2;align=center;verticalAlign=middle;fontFamily=Helvetica;fontSize=11;fontColor=default;labelBackgroundColor=default;jumpStyle=gap;endArrow=none;endFill=0;curved=0;" edge="1" parent="1">
          <mxGeometry width="80" relative="1" as="geometry">
            <mxPoint x="100" y="230" as="sourcePoint" />
            <mxPoint x="100" y="200" as="targetPoint" />
            <Array as="points" />
          </mxGeometry>
        </mxCell>
      </root>
    </mxGraphModel>
  </diagram>
  <diagram id="k_uYEv-3QArGbNoDkghG" name="Page-15">
    <mxGraphModel dx="383" dy="261" grid="1" gridSize="5" guides="1" tooltips="1" connect="1" arrows="1" fold="1" page="0" pageScale="1" pageWidth="827" pageHeight="1169" math="1" shadow="0">
      <root>
        <mxCell id="0" />
        <mxCell id="1" parent="0" />
        <mxCell id="lu8ioysq_Wd-gyQqPvyk-4" style="edgeStyle=none;shape=connector;curved=0;rounded=1;jumpStyle=gap;orthogonalLoop=1;jettySize=auto;html=1;exitX=0.5;exitY=1;exitDx=0;exitDy=0;strokeColor=default;strokeWidth=2;align=center;verticalAlign=middle;fontFamily=Helvetica;fontSize=11;fontColor=default;labelBackgroundColor=default;endArrow=classic;endFill=1;entryX=0.5;entryY=1;entryDx=0;entryDy=0;" edge="1" parent="1" target="lu8ioysq_Wd-gyQqPvyk-3">
          <mxGeometry relative="1" as="geometry">
            <mxPoint x="160.01675977653633" y="150.00173184357539" as="sourcePoint" />
          </mxGeometry>
        </mxCell>
        <mxCell id="lu8ioysq_Wd-gyQqPvyk-5" style="edgeStyle=none;shape=connector;curved=0;rounded=1;jumpStyle=gap;orthogonalLoop=1;jettySize=auto;html=1;exitX=0.5;exitY=1;exitDx=0;exitDy=0;strokeColor=default;strokeWidth=2;align=center;verticalAlign=middle;fontFamily=Helvetica;fontSize=11;fontColor=default;labelBackgroundColor=default;endArrow=classic;endFill=1;entryX=0.5;entryY=1;entryDx=0;entryDy=0;" edge="1" parent="1" source="lu8ioysq_Wd-gyQqPvyk-6">
          <mxGeometry relative="1" as="geometry">
            <mxPoint x="160.01675977653633" y="204.89173184357537" as="targetPoint" />
          </mxGeometry>
        </mxCell>
        <mxCell id="lu8ioysq_Wd-gyQqPvyk-7" style="edgeStyle=none;shape=connector;curved=0;rounded=1;jumpStyle=gap;orthogonalLoop=1;jettySize=auto;html=1;exitX=0.5;exitY=0;exitDx=0;exitDy=0;strokeColor=default;strokeWidth=2;align=center;verticalAlign=middle;fontFamily=Helvetica;fontSize=11;fontColor=default;labelBackgroundColor=default;endArrow=classic;endFill=1;" edge="1" parent="1" source="lu8ioysq_Wd-gyQqPvyk-6">
          <mxGeometry relative="1" as="geometry">
            <mxPoint x="160.01675977653633" y="290" as="targetPoint" />
          </mxGeometry>
        </mxCell>
        <mxCell id="lu8ioysq_Wd-gyQqPvyk-3" value="" style="shape=trapezoid;perimeter=trapezoidPerimeter;whiteSpace=wrap;html=1;fixedSize=1;align=center;verticalAlign=middle;fontFamily=Helvetica;fontSize=11;labelBackgroundColor=none;autosize=1;resizable=0;fillColor=#b0e3e6;size=10;strokeColor=#0e8088;rotation=-180;flipV=0;fontColor=default;" vertex="1" parent="1">
          <mxGeometry x="145" y="179.89" width="30" height="25" as="geometry" />
        </mxCell>
        <mxCell id="lu8ioysq_Wd-gyQqPvyk-6" value="" style="shape=trapezoid;perimeter=trapezoidPerimeter;whiteSpace=wrap;html=1;fixedSize=1;align=center;verticalAlign=middle;fontFamily=Helvetica;fontSize=11;labelBackgroundColor=none;autosize=1;resizable=0;fillColor=#b0e3e6;size=10;strokeColor=#0e8088;rotation=-180;flipV=0;fontColor=default;" vertex="1" parent="1">
          <mxGeometry x="145" y="234.77999999999997" width="30" height="25" as="geometry" />
        </mxCell>
        <mxCell id="KfDqkAmPLDiEEc2OAsLH-1" value="$$a$$" style="text;html=1;align=center;verticalAlign=middle;resizable=0;points=[];autosize=1;strokeColor=none;fillColor=none;fontFamily=Helvetica;fontSize=11;fontColor=default;labelBackgroundColor=none;" vertex="1" parent="1">
          <mxGeometry x="150" y="143" width="50" height="30" as="geometry" />
        </mxCell>
        <mxCell id="KfDqkAmPLDiEEc2OAsLH-2" value="$$a$$" style="text;html=1;align=center;verticalAlign=middle;resizable=0;points=[];autosize=1;strokeColor=none;fillColor=none;fontFamily=Helvetica;fontSize=11;fontColor=default;labelBackgroundColor=none;" vertex="1" parent="1">
          <mxGeometry x="150" y="255" width="50" height="30" as="geometry" />
        </mxCell>
        <mxCell id="KfDqkAmPLDiEEc2OAsLH-3" value="$$\bar{a}$$" style="text;html=1;align=center;verticalAlign=middle;resizable=0;points=[];autosize=1;strokeColor=none;fillColor=none;fontFamily=Helvetica;fontSize=11;fontColor=default;labelBackgroundColor=none;" vertex="1" parent="1">
          <mxGeometry x="135" y="204.78" width="80" height="30" as="geometry" />
        </mxCell>
      </root>
    </mxGraphModel>
  </diagram>
  <diagram id="No6DEsOfDPZ1vTQ4NWyn" name="Page-16">
    <mxGraphModel dx="383" dy="261" grid="1" gridSize="5" guides="1" tooltips="1" connect="1" arrows="1" fold="1" page="0" pageScale="1" pageWidth="827" pageHeight="1169" math="1" shadow="0">
      <root>
        <mxCell id="0" />
        <mxCell id="1" parent="0" />
        <mxCell id="Z11rEUSXBk0IuMJBvlhR-1" style="edgeStyle=none;shape=connector;curved=0;rounded=1;jumpStyle=gap;orthogonalLoop=1;jettySize=auto;html=1;strokeColor=default;strokeWidth=2;align=center;verticalAlign=middle;fontFamily=Helvetica;fontSize=11;fontColor=default;labelBackgroundColor=default;endArrow=classic;endFill=1;entryX=0.5;entryY=1;entryDx=0;entryDy=0;" edge="1" parent="1" target="Z11rEUSXBk0IuMJBvlhR-4">
          <mxGeometry relative="1" as="geometry">
            <mxPoint x="170" y="160" as="sourcePoint" />
          </mxGeometry>
        </mxCell>
        <mxCell id="Z11rEUSXBk0IuMJBvlhR-2" style="edgeStyle=none;shape=connector;curved=0;rounded=1;jumpStyle=gap;orthogonalLoop=1;jettySize=auto;html=1;exitX=0.5;exitY=0;exitDx=0;exitDy=0;strokeColor=default;strokeWidth=2;align=center;verticalAlign=middle;fontFamily=Helvetica;fontSize=11;fontColor=default;labelBackgroundColor=default;endArrow=classic;endFill=1;entryX=0.5;entryY=0;entryDx=0;entryDy=0;" edge="1" parent="1" source="Z11rEUSXBk0IuMJBvlhR-5" target="Z11rEUSXBk0IuMJBvlhR-4">
          <mxGeometry relative="1" as="geometry">
            <mxPoint x="170.01675977653633" y="224.89173184357537" as="targetPoint" />
            <Array as="points">
              <mxPoint x="140" y="260" />
              <mxPoint x="170" y="260" />
            </Array>
          </mxGeometry>
        </mxCell>
        <mxCell id="Z11rEUSXBk0IuMJBvlhR-4" value="" style="shape=trapezoid;perimeter=trapezoidPerimeter;whiteSpace=wrap;html=1;fixedSize=1;align=center;verticalAlign=middle;fontFamily=Helvetica;fontSize=11;labelBackgroundColor=none;autosize=1;resizable=0;fillColor=#b0e3e6;size=10;strokeColor=#0e8088;rotation=-180;flipV=0;fontColor=default;" vertex="1" parent="1">
          <mxGeometry x="155" y="215" width="30" height="25" as="geometry" />
        </mxCell>
        <mxCell id="Z11rEUSXBk0IuMJBvlhR-6" style="edgeStyle=none;shape=connector;curved=0;rounded=1;jumpStyle=gap;orthogonalLoop=1;jettySize=auto;html=1;exitX=0.5;exitY=1;exitDx=0;exitDy=0;strokeColor=default;strokeWidth=2;align=center;verticalAlign=middle;fontFamily=Helvetica;fontSize=11;fontColor=default;labelBackgroundColor=default;endArrow=classic;endFill=1;" edge="1" parent="1" source="Z11rEUSXBk0IuMJBvlhR-5">
          <mxGeometry relative="1" as="geometry">
            <mxPoint x="110" y="260" as="targetPoint" />
            <Array as="points">
              <mxPoint x="140" y="160" />
              <mxPoint x="110" y="160" />
            </Array>
          </mxGeometry>
        </mxCell>
        <mxCell id="Z11rEUSXBk0IuMJBvlhR-5" value="" style="shape=trapezoid;perimeter=trapezoidPerimeter;whiteSpace=wrap;html=1;fixedSize=1;align=center;verticalAlign=middle;fontFamily=Helvetica;fontSize=11;labelBackgroundColor=none;autosize=1;resizable=0;fillColor=#b0e3e6;size=10;strokeColor=#0e8088;rotation=-180;flipV=1;fontColor=default;" vertex="1" parent="1">
          <mxGeometry x="125" y="180" width="30" height="25" as="geometry" />
        </mxCell>
        <mxCell id="faKNHgUZcOey4LyZxnzl-1" value="$$\bar{a}$$" style="text;html=1;align=center;verticalAlign=middle;resizable=0;points=[];autosize=1;strokeColor=none;fillColor=none;fontFamily=Helvetica;fontSize=11;fontColor=default;labelBackgroundColor=none;" vertex="1" parent="1">
          <mxGeometry x="90" y="215" width="80" height="30" as="geometry" />
        </mxCell>
        <mxCell id="faKNHgUZcOey4LyZxnzl-2" value="$$a$$" style="text;html=1;align=center;verticalAlign=middle;resizable=0;points=[];autosize=1;strokeColor=none;fillColor=none;fontFamily=Helvetica;fontSize=11;fontColor=default;labelBackgroundColor=none;" vertex="1" parent="1">
          <mxGeometry x="155" y="165" width="50" height="30" as="geometry" />
        </mxCell>
        <mxCell id="faKNHgUZcOey4LyZxnzl-3" value="$$a$$" style="text;html=1;align=center;verticalAlign=middle;resizable=0;points=[];autosize=1;strokeColor=none;fillColor=none;fontFamily=Helvetica;fontSize=11;fontColor=default;labelBackgroundColor=none;" vertex="1" parent="1">
          <mxGeometry x="75" y="190" width="50" height="30" as="geometry" />
        </mxCell>
      </root>
    </mxGraphModel>
  </diagram>
  <diagram id="G1vYtfRJS8FO4lBSep63" name="Page-17">
    <mxGraphModel dx="553" dy="377" grid="1" gridSize="5" guides="1" tooltips="1" connect="1" arrows="1" fold="1" page="0" pageScale="1" pageWidth="827" pageHeight="1169" math="1" shadow="0">
      <root>
        <mxCell id="0" />
        <mxCell id="1" parent="0" />
        <mxCell id="NYmBupH6FKytORv2kOOw-1" value="$$I$$" style="text;align=center;verticalAlign=middle;resizable=0;points=[];autosize=1;strokeColor=none;fillColor=none;html=1;" vertex="1" parent="1">
          <mxGeometry x="255" y="245" width="50" height="30" as="geometry" />
        </mxCell>
        <mxCell id="NYmBupH6FKytORv2kOOw-4" value="" style="rounded=1;orthogonalLoop=1;jettySize=auto;exitX=0.33;exitY=0;exitDx=0;exitDy=0;exitPerimeter=0;strokeWidth=2;endArrow=none;endFill=0;curved=0;jumpStyle=gap;html=1;entryX=0.5;entryY=1;entryDx=0;entryDy=0;entryPerimeter=0;dashed=1;" edge="1" parent="1" source="NYmBupH6FKytORv2kOOw-7" target="NYmBupH6FKytORv2kOOw-11">
          <mxGeometry relative="1" as="geometry">
            <mxPoint x="280" y="280" as="targetPoint" />
            <Array as="points" />
          </mxGeometry>
        </mxCell>
        <mxCell id="NYmBupH6FKytORv2kOOw-6" value="" style="rounded=1;orthogonalLoop=1;jettySize=auto;exitX=0.67;exitY=0;exitDx=0;exitDy=0;exitPerimeter=0;strokeWidth=2;endArrow=classic;endFill=1;curved=0;jumpStyle=gap;html=1;entryX=0.67;entryY=0;entryDx=0;entryDy=0;entryPerimeter=0;" edge="1" parent="1" source="NYmBupH6FKytORv2kOOw-7" target="NYmBupH6FKytORv2kOOw-14">
          <mxGeometry relative="1" as="geometry">
            <mxPoint x="320" y="280" as="targetPoint" />
            <mxPoint x="313" y="240" as="sourcePoint" />
            <Array as="points" />
          </mxGeometry>
        </mxCell>
        <mxCell id="NYmBupH6FKytORv2kOOw-19" style="edgeStyle=none;shape=connector;curved=0;rounded=1;jumpStyle=gap;orthogonalLoop=1;jettySize=auto;html=1;strokeColor=default;strokeWidth=2;align=center;verticalAlign=middle;fontFamily=Helvetica;fontSize=11;fontColor=default;labelBackgroundColor=default;endArrow=classic;endFill=1;entryX=0.5;entryY=1;entryDx=0;entryDy=0;entryPerimeter=0;" edge="1" parent="1" target="NYmBupH6FKytORv2kOOw-7">
          <mxGeometry relative="1" as="geometry">
            <mxPoint x="310" y="190" as="sourcePoint" />
          </mxGeometry>
        </mxCell>
        <mxCell id="NYmBupH6FKytORv2kOOw-7" value="" style="verticalLabelPosition=bottom;verticalAlign=top;shape=mxgraph.basic.half_circle;fontFamily=Helvetica;fontSize=11;labelBackgroundColor=default;fillColor=#e1d5e7;strokeColor=#9673a6;flipV=1;points=[[0.33,0,0,0,0],[0.5,1,0,0,0],[0.67,0,0,0,0]];html=1;" vertex="1" parent="1">
          <mxGeometry x="290" y="220" width="40" height="20" as="geometry" />
        </mxCell>
        <mxCell id="NYmBupH6FKytORv2kOOw-9" style="rounded=1;orthogonalLoop=1;jettySize=auto;html=1;exitX=0.33;exitY=0;exitDx=0;exitDy=0;exitPerimeter=0;strokeColor=default;strokeWidth=2;align=center;verticalAlign=middle;fontFamily=Helvetica;fontSize=11;fontColor=default;labelBackgroundColor=default;jumpStyle=gap;endArrow=classic;endFill=1;entryX=0.33;entryY=0;entryDx=0;entryDy=0;entryPerimeter=0;" edge="1" parent="1" source="NYmBupH6FKytORv2kOOw-11" target="NYmBupH6FKytORv2kOOw-15">
          <mxGeometry relative="1" as="geometry">
            <mxPoint x="260" y="340" as="targetPoint" />
          </mxGeometry>
        </mxCell>
        <mxCell id="NYmBupH6FKytORv2kOOw-10" style="edgeStyle=none;shape=connector;curved=0;rounded=1;jumpStyle=gap;orthogonalLoop=1;jettySize=auto;html=1;exitX=0.67;exitY=0;exitDx=0;exitDy=0;exitPerimeter=0;strokeColor=default;strokeWidth=2;align=center;verticalAlign=middle;fontFamily=Helvetica;fontSize=11;fontColor=default;labelBackgroundColor=default;endArrow=classic;endFill=1;entryX=0.33;entryY=0;entryDx=0;entryDy=0;entryPerimeter=0;" edge="1" parent="1" source="NYmBupH6FKytORv2kOOw-11" target="NYmBupH6FKytORv2kOOw-14">
          <mxGeometry relative="1" as="geometry">
            <mxPoint x="300" y="340" as="targetPoint" />
          </mxGeometry>
        </mxCell>
        <mxCell id="NYmBupH6FKytORv2kOOw-12" value="$$a$$" style="text;align=center;verticalAlign=middle;resizable=0;points=[];autosize=1;strokeColor=none;fillColor=none;html=1;" vertex="1" parent="1">
          <mxGeometry x="230" y="330" width="60" height="30" as="geometry" />
        </mxCell>
        <mxCell id="NYmBupH6FKytORv2kOOw-16" style="edgeStyle=none;shape=connector;curved=0;rounded=1;jumpStyle=gap;orthogonalLoop=1;jettySize=auto;html=1;exitX=0.5;exitY=1;exitDx=0;exitDy=0;exitPerimeter=0;entryX=0.67;entryY=0;entryDx=0;entryDy=0;entryPerimeter=0;strokeColor=default;strokeWidth=2;align=center;verticalAlign=middle;fontFamily=Helvetica;fontSize=11;fontColor=default;labelBackgroundColor=default;endArrow=none;endFill=0;dashed=1;" edge="1" parent="1" source="NYmBupH6FKytORv2kOOw-14" target="NYmBupH6FKytORv2kOOw-15">
          <mxGeometry relative="1" as="geometry" />
        </mxCell>
        <mxCell id="NYmBupH6FKytORv2kOOw-17" value="$$I$$" style="text;align=center;verticalAlign=middle;resizable=0;points=[];autosize=1;strokeColor=none;fillColor=none;html=1;" vertex="1" parent="1">
          <mxGeometry x="285" y="365" width="50" height="30" as="geometry" />
        </mxCell>
        <mxCell id="NYmBupH6FKytORv2kOOw-20" value="$$a$$" style="text;align=center;verticalAlign=middle;resizable=0;points=[];autosize=1;strokeColor=none;fillColor=none;html=1;" vertex="1" parent="1">
          <mxGeometry x="290" y="185" width="60" height="30" as="geometry" />
        </mxCell>
        <mxCell id="NYmBupH6FKytORv2kOOw-21" style="edgeStyle=none;shape=connector;curved=0;rounded=1;jumpStyle=gap;orthogonalLoop=1;jettySize=auto;html=1;strokeColor=default;strokeWidth=2;align=center;verticalAlign=middle;fontFamily=Helvetica;fontSize=11;fontColor=default;labelBackgroundColor=default;endArrow=classic;endFill=1;entryX=0.5;entryY=1;entryDx=0;entryDy=0;entryPerimeter=0;" edge="1" parent="1">
          <mxGeometry relative="1" as="geometry">
            <mxPoint x="279.88" y="450" as="targetPoint" />
            <mxPoint x="280" y="420" as="sourcePoint" />
          </mxGeometry>
        </mxCell>
        <mxCell id="NYmBupH6FKytORv2kOOw-15" value="" style="verticalLabelPosition=bottom;verticalAlign=top;shape=mxgraph.basic.half_circle;fontFamily=Helvetica;fontSize=11;labelBackgroundColor=default;fillColor=#e1d5e7;strokeColor=#9673a6;flipV=0;points=[[0.33,0,0,0,0],[0.5,1,0,0,0],[0.67,0,0,0,0]];html=1;" vertex="1" parent="1">
          <mxGeometry x="260" y="400" width="40" height="20" as="geometry" />
        </mxCell>
        <mxCell id="NYmBupH6FKytORv2kOOw-14" value="" style="verticalLabelPosition=bottom;verticalAlign=top;shape=mxgraph.basic.half_circle;fontFamily=Helvetica;fontSize=11;labelBackgroundColor=default;fillColor=#e1d5e7;strokeColor=#9673a6;flipV=0;points=[[0.33,0,0,0,0],[0.5,1,0,0,0],[0.67,0,0,0,0]];html=1;" vertex="1" parent="1">
          <mxGeometry x="290" y="340" width="40" height="20" as="geometry" />
        </mxCell>
        <mxCell id="NYmBupH6FKytORv2kOOw-11" value="" style="verticalLabelPosition=bottom;verticalAlign=top;shape=mxgraph.basic.half_circle;fontFamily=Helvetica;fontSize=11;labelBackgroundColor=default;fillColor=#e1d5e7;strokeColor=#9673a6;flipV=1;points=[[0.33,0,0,0,0],[0.5,1,0,0,0],[0.67,0,0,0,0]];html=1;" vertex="1" parent="1">
          <mxGeometry x="260" y="280" width="40" height="20" as="geometry" />
        </mxCell>
        <mxCell id="NYmBupH6FKytORv2kOOw-22" value="$$a$$" style="text;align=center;verticalAlign=middle;resizable=0;points=[];autosize=1;strokeColor=none;fillColor=none;html=1;" vertex="1" parent="1">
          <mxGeometry x="295" y="270" width="60" height="30" as="geometry" />
        </mxCell>
        <mxCell id="NYmBupH6FKytORv2kOOw-23" value="$$\bar{a}$$" style="text;align=center;verticalAlign=middle;resizable=0;points=[];autosize=1;strokeColor=none;fillColor=none;html=1;" vertex="1" parent="1">
          <mxGeometry x="260" y="300" width="85" height="30" as="geometry" />
        </mxCell>
        <mxCell id="NYmBupH6FKytORv2kOOw-24" value="$$a$$" style="text;align=center;verticalAlign=middle;resizable=0;points=[];autosize=1;strokeColor=none;fillColor=none;html=1;" vertex="1" parent="1">
          <mxGeometry x="235" y="420" width="60" height="30" as="geometry" />
        </mxCell>
      </root>
    </mxGraphModel>
  </diagram>
  <diagram id="4ZV4USE8HppONI_9tgNn" name="Page-18">
    <mxGraphModel dx="277" dy="279" grid="1" gridSize="5" guides="1" tooltips="1" connect="1" arrows="1" fold="1" page="1" pageScale="1" pageWidth="827" pageHeight="1169" math="1" shadow="0">
      <root>
        <mxCell id="0" />
        <mxCell id="1" parent="0" />
        <mxCell id="XMjAbix5sM6dNayJxCiD-4" value="" style="rounded=1;orthogonalLoop=1;jettySize=auto;exitX=0.33;exitY=0;exitDx=0;exitDy=0;exitPerimeter=0;strokeWidth=2;endArrow=none;endFill=0;curved=0;jumpStyle=gap;html=1;" edge="1" parent="1" source="XMjAbix5sM6dNayJxCiD-7">
          <mxGeometry relative="1" as="geometry">
            <mxPoint x="280" y="280" as="targetPoint" />
            <Array as="points" />
          </mxGeometry>
        </mxCell>
        <mxCell id="XMjAbix5sM6dNayJxCiD-5" value="" style="edgeStyle=orthogonalEdgeStyle;rounded=0;orthogonalLoop=1;jettySize=auto;strokeColor=default;strokeWidth=2;align=center;verticalAlign=middle;fontFamily=Helvetica;fontSize=11;fontColor=default;labelBackgroundColor=default;endArrow=none;endFill=0;entryX=0.5;entryY=1;entryDx=0;entryDy=0;entryPerimeter=0;html=1;" edge="1" parent="1" target="XMjAbix5sM6dNayJxCiD-7">
          <mxGeometry relative="1" as="geometry">
            <mxPoint x="300" y="180" as="sourcePoint" />
          </mxGeometry>
        </mxCell>
        <mxCell id="XMjAbix5sM6dNayJxCiD-6" value="" style="rounded=1;orthogonalLoop=1;jettySize=auto;exitX=0.67;exitY=0;exitDx=0;exitDy=0;exitPerimeter=0;strokeWidth=2;endArrow=none;endFill=0;curved=0;jumpStyle=gap;html=1;" edge="1" parent="1" source="XMjAbix5sM6dNayJxCiD-7">
          <mxGeometry relative="1" as="geometry">
            <mxPoint x="320" y="280" as="targetPoint" />
            <mxPoint x="313" y="240" as="sourcePoint" />
            <Array as="points" />
          </mxGeometry>
        </mxCell>
        <mxCell id="XMjAbix5sM6dNayJxCiD-7" value="" style="verticalLabelPosition=bottom;verticalAlign=top;shape=mxgraph.basic.half_circle;fontFamily=Helvetica;fontSize=11;labelBackgroundColor=default;fillColor=#e1d5e7;strokeColor=#9673a6;flipV=1;points=[[0.33,0,0,0,0],[0.5,1,0,0,0],[0.67,0,0,0,0]];html=1;" vertex="1" parent="1">
          <mxGeometry x="280" y="210" width="40" height="20" as="geometry" />
        </mxCell>
        <mxCell id="XMjAbix5sM6dNayJxCiD-16" value="" style="edgeStyle=none;orthogonalLoop=1;jettySize=auto;html=1;rounded=0;strokeWidth=2;endArrow=none;endFill=0;jumpStyle=gap;" edge="1" parent="1">
          <mxGeometry width="80" relative="1" as="geometry">
            <mxPoint x="260" y="180" as="sourcePoint" />
            <mxPoint x="340" y="220" as="targetPoint" />
            <Array as="points" />
          </mxGeometry>
        </mxCell>
      </root>
    </mxGraphModel>
  </diagram>
  <diagram id="PylAZNFrv3A7_okUTOAT" name="Page-19">
    <mxGraphModel dx="331" dy="333" grid="1" gridSize="5" guides="1" tooltips="1" connect="1" arrows="1" fold="1" page="1" pageScale="1" pageWidth="827" pageHeight="1169" math="1" shadow="0">
      <root>
        <mxCell id="0" />
        <mxCell id="1" parent="0" />
        <mxCell id="qg0IcgD0JEMXBKFj2-Rb-1" value="" style="rounded=1;orthogonalLoop=1;jettySize=auto;exitX=0.33;exitY=0;exitDx=0;exitDy=0;exitPerimeter=0;strokeWidth=2;endArrow=none;endFill=0;curved=0;jumpStyle=gap;html=1;" edge="1" parent="1" source="qg0IcgD0JEMXBKFj2-Rb-4">
          <mxGeometry relative="1" as="geometry">
            <mxPoint x="280" y="280" as="targetPoint" />
            <Array as="points" />
          </mxGeometry>
        </mxCell>
        <mxCell id="qg0IcgD0JEMXBKFj2-Rb-2" value="" style="edgeStyle=orthogonalEdgeStyle;rounded=0;orthogonalLoop=1;jettySize=auto;strokeColor=default;strokeWidth=2;align=center;verticalAlign=middle;fontFamily=Helvetica;fontSize=11;fontColor=default;labelBackgroundColor=default;endArrow=none;endFill=0;entryX=0.5;entryY=1;entryDx=0;entryDy=0;entryPerimeter=0;html=1;" edge="1" parent="1" target="qg0IcgD0JEMXBKFj2-Rb-4">
          <mxGeometry relative="1" as="geometry">
            <mxPoint x="300" y="180" as="sourcePoint" />
          </mxGeometry>
        </mxCell>
        <mxCell id="qg0IcgD0JEMXBKFj2-Rb-3" value="" style="rounded=1;orthogonalLoop=1;jettySize=auto;exitX=0.67;exitY=0;exitDx=0;exitDy=0;exitPerimeter=0;strokeWidth=2;endArrow=none;endFill=0;curved=0;jumpStyle=gap;html=1;" edge="1" parent="1" source="qg0IcgD0JEMXBKFj2-Rb-4">
          <mxGeometry relative="1" as="geometry">
            <mxPoint x="320" y="280" as="targetPoint" />
            <mxPoint x="313" y="240" as="sourcePoint" />
            <Array as="points" />
          </mxGeometry>
        </mxCell>
        <mxCell id="qg0IcgD0JEMXBKFj2-Rb-4" value="" style="verticalLabelPosition=bottom;verticalAlign=top;shape=mxgraph.basic.half_circle;fontFamily=Helvetica;fontSize=11;labelBackgroundColor=default;fillColor=#e1d5e7;strokeColor=#9673a6;flipV=1;points=[[0.33,0,0,0,0],[0.5,1,0,0,0],[0.67,0,0,0,0]];html=1;" vertex="1" parent="1">
          <mxGeometry x="280" y="210" width="40" height="20" as="geometry" />
        </mxCell>
        <mxCell id="qg0IcgD0JEMXBKFj2-Rb-5" value="" style="edgeStyle=none;orthogonalLoop=1;jettySize=auto;html=1;rounded=0;strokeWidth=2;endArrow=none;endFill=0;jumpStyle=gap;" edge="1" parent="1">
          <mxGeometry width="80" relative="1" as="geometry">
            <mxPoint x="260" y="235" as="sourcePoint" />
            <mxPoint x="340" y="275" as="targetPoint" />
            <Array as="points" />
          </mxGeometry>
        </mxCell>
      </root>
    </mxGraphModel>
  </diagram>
  <diagram id="vxSHrTbuf4I7Qfrs9_H2" name="Page-20">
    <mxGraphModel dx="229" dy="230" grid="1" gridSize="5" guides="1" tooltips="1" connect="1" arrows="1" fold="1" page="1" pageScale="1" pageWidth="827" pageHeight="1169" math="1" shadow="0">
      <root>
        <mxCell id="0" />
        <mxCell id="1" parent="0" />
        <mxCell id="SQOmbEah6b1XL3CeCDlW-1" style="rounded=1;orthogonalLoop=1;jettySize=auto;html=1;exitX=0.33;exitY=0;exitDx=0;exitDy=0;exitPerimeter=0;strokeWidth=2;endArrow=classic;endFill=1;curved=0;jumpStyle=gap;" edge="1" parent="1" source="SQOmbEah6b1XL3CeCDlW-2">
          <mxGeometry relative="1" as="geometry">
            <mxPoint x="260" y="260" as="targetPoint" />
            <Array as="points" />
          </mxGeometry>
        </mxCell>
        <mxCell id="SQOmbEah6b1XL3CeCDlW-3" style="rounded=1;orthogonalLoop=1;jettySize=auto;html=1;exitX=0.67;exitY=0;exitDx=0;exitDy=0;exitPerimeter=0;strokeWidth=2;endArrow=classic;endFill=1;curved=0;jumpStyle=gap;" edge="1" parent="1" source="SQOmbEah6b1XL3CeCDlW-2">
          <mxGeometry relative="1" as="geometry">
            <mxPoint x="330" y="260" as="targetPoint" />
            <mxPoint x="293" y="220" as="sourcePoint" />
            <Array as="points">
              <mxPoint x="290" y="220" />
              <mxPoint x="295" y="230" />
            </Array>
          </mxGeometry>
        </mxCell>
        <mxCell id="SQOmbEah6b1XL3CeCDlW-5" style="rounded=1;orthogonalLoop=1;jettySize=auto;html=1;exitX=0.33;exitY=0;exitDx=0;exitDy=0;exitPerimeter=0;strokeWidth=2;endArrow=classic;endFill=1;curved=0;jumpStyle=gap;entryX=0.5;entryY=1;entryDx=0;entryDy=0;entryPerimeter=0;" edge="1" parent="1" source="SQOmbEah6b1XL3CeCDlW-7" target="SQOmbEah6b1XL3CeCDlW-2">
          <mxGeometry relative="1" as="geometry">
            <mxPoint x="460" y="210" as="targetPoint" />
            <Array as="points" />
          </mxGeometry>
        </mxCell>
        <mxCell id="SQOmbEah6b1XL3CeCDlW-6" style="edgeStyle=orthogonalEdgeStyle;rounded=0;orthogonalLoop=1;jettySize=auto;html=1;strokeColor=default;strokeWidth=2;align=center;verticalAlign=middle;fontFamily=Helvetica;fontSize=11;fontColor=default;labelBackgroundColor=default;endArrow=classic;endFill=1;entryX=0.5;entryY=1;entryDx=0;entryDy=0;entryPerimeter=0;" edge="1" parent="1" target="SQOmbEah6b1XL3CeCDlW-7">
          <mxGeometry relative="1" as="geometry">
            <mxPoint x="300" y="100" as="sourcePoint" />
          </mxGeometry>
        </mxCell>
        <mxCell id="SQOmbEah6b1XL3CeCDlW-8" style="rounded=1;orthogonalLoop=1;jettySize=auto;html=1;exitX=0.67;exitY=0;exitDx=0;exitDy=0;exitPerimeter=0;strokeWidth=2;endArrow=classic;endFill=1;curved=0;jumpStyle=gap;" edge="1" parent="1" source="SQOmbEah6b1XL3CeCDlW-7">
          <mxGeometry relative="1" as="geometry">
            <mxPoint x="290" y="260" as="targetPoint" />
            <mxPoint x="493" y="170" as="sourcePoint" />
            <Array as="points">
              <mxPoint x="325" y="220" />
            </Array>
          </mxGeometry>
        </mxCell>
        <mxCell id="SQOmbEah6b1XL3CeCDlW-10" value="$$a$$" style="text;html=1;align=center;verticalAlign=middle;resizable=0;points=[];autosize=1;strokeColor=none;fillColor=none;" vertex="1" parent="1">
          <mxGeometry x="215" y="240" width="55" height="30" as="geometry" />
        </mxCell>
        <mxCell id="SQOmbEah6b1XL3CeCDlW-11" value="$$d$$" style="text;html=1;align=center;verticalAlign=middle;resizable=0;points=[];autosize=1;strokeColor=none;fillColor=none;" vertex="1" parent="1">
          <mxGeometry x="252.5" y="240" width="55" height="30" as="geometry" />
        </mxCell>
        <mxCell id="SQOmbEah6b1XL3CeCDlW-12" value="$$b$$" style="text;html=1;align=center;verticalAlign=middle;resizable=0;points=[];autosize=1;strokeColor=none;fillColor=none;" vertex="1" parent="1">
          <mxGeometry x="315" y="240" width="55" height="30" as="geometry" />
        </mxCell>
        <mxCell id="SQOmbEah6b1XL3CeCDlW-13" value="$$c$$" style="text;html=1;align=center;verticalAlign=middle;resizable=0;points=[];autosize=1;strokeColor=none;fillColor=none;" vertex="1" parent="1">
          <mxGeometry x="245" y="150" width="55" height="30" as="geometry" />
        </mxCell>
        <mxCell id="SQOmbEah6b1XL3CeCDlW-14" value="$$e$$" style="text;html=1;align=center;verticalAlign=middle;resizable=0;points=[];autosize=1;strokeColor=none;fillColor=none;" vertex="1" parent="1">
          <mxGeometry x="280" y="88" width="55" height="30" as="geometry" />
        </mxCell>
        <mxCell id="SQOmbEah6b1XL3CeCDlW-7" value="" style="verticalLabelPosition=bottom;verticalAlign=top;html=1;shape=mxgraph.basic.half_circle;fontFamily=Helvetica;fontSize=11;labelBackgroundColor=default;fillColor=#e1d5e7;strokeColor=#9673a6;flipV=1;points=[[0.33,0,0,0,0],[0.5,1,0,0,0],[0.67,0,0,0,0]];" vertex="1" parent="1">
          <mxGeometry x="280" y="130" width="40" height="20" as="geometry" />
        </mxCell>
        <mxCell id="SQOmbEah6b1XL3CeCDlW-9" value="$$\nu$$" style="text;html=1;align=center;verticalAlign=middle;resizable=0;points=[];autosize=1;strokeColor=none;fillColor=none;fontFamily=Helvetica;fontSize=11;fontColor=default;labelBackgroundColor=none;" vertex="1" parent="1">
          <mxGeometry x="270" y="125" width="60" height="30" as="geometry" />
        </mxCell>
        <mxCell id="SQOmbEah6b1XL3CeCDlW-2" value="" style="verticalLabelPosition=bottom;verticalAlign=top;html=1;shape=mxgraph.basic.half_circle;fontFamily=Helvetica;fontSize=11;labelBackgroundColor=default;fillColor=#e1d5e7;strokeColor=#9673a6;flipV=1;points=[[0.33,0,0,0,0],[0.5,1,0,0,0],[0.67,0,0,0,0]];" vertex="1" parent="1">
          <mxGeometry x="260" y="190" width="40" height="20" as="geometry" />
        </mxCell>
        <mxCell id="SQOmbEah6b1XL3CeCDlW-4" value="$$\mu$$" style="text;html=1;align=center;verticalAlign=middle;resizable=0;points=[];autosize=1;strokeColor=none;fillColor=none;fontFamily=Helvetica;fontSize=11;fontColor=default;labelBackgroundColor=none;" vertex="1" parent="1">
          <mxGeometry x="245" y="185" width="70" height="30" as="geometry" />
        </mxCell>
      </root>
    </mxGraphModel>
  </diagram>
  <diagram id="fxAGMukZCPLy4MgZaBcl" name="Page-21">
    <mxGraphModel dx="398" dy="399" grid="1" gridSize="5" guides="1" tooltips="1" connect="1" arrows="1" fold="1" page="1" pageScale="1" pageWidth="827" pageHeight="1169" math="1" shadow="0">
      <root>
        <mxCell id="0" />
        <mxCell id="1" parent="0" />
        <mxCell id="YzImQExkG7niPv3KvhFZ-1" style="rounded=1;orthogonalLoop=1;jettySize=auto;html=1;exitX=0.33;exitY=0;exitDx=0;exitDy=0;exitPerimeter=0;strokeWidth=2;endArrow=classic;endFill=1;curved=0;jumpStyle=gap;" edge="1" parent="1" source="YzImQExkG7niPv3KvhFZ-2">
          <mxGeometry relative="1" as="geometry">
            <mxPoint x="340" y="260" as="targetPoint" />
            <Array as="points">
              <mxPoint x="315" y="220" />
            </Array>
          </mxGeometry>
        </mxCell>
        <mxCell id="YzImQExkG7niPv3KvhFZ-3" style="rounded=1;orthogonalLoop=1;jettySize=auto;html=1;exitX=0.67;exitY=0;exitDx=0;exitDy=0;exitPerimeter=0;strokeWidth=2;endArrow=classic;endFill=1;curved=0;jumpStyle=gap;" edge="1" parent="1" source="YzImQExkG7niPv3KvhFZ-2">
          <mxGeometry relative="1" as="geometry">
            <mxPoint x="300" y="260" as="targetPoint" />
            <mxPoint x="293" y="220" as="sourcePoint" />
            <Array as="points">
              <mxPoint x="325" y="220" />
            </Array>
          </mxGeometry>
        </mxCell>
        <mxCell id="YzImQExkG7niPv3KvhFZ-5" style="rounded=1;orthogonalLoop=1;jettySize=auto;html=1;exitX=0.33;exitY=0;exitDx=0;exitDy=0;exitPerimeter=0;strokeWidth=2;endArrow=classic;endFill=1;curved=0;jumpStyle=gap;" edge="1" parent="1" source="YzImQExkG7niPv3KvhFZ-7">
          <mxGeometry relative="1" as="geometry">
            <mxPoint x="260" y="260" as="targetPoint" />
            <Array as="points" />
          </mxGeometry>
        </mxCell>
        <mxCell id="YzImQExkG7niPv3KvhFZ-6" style="edgeStyle=orthogonalEdgeStyle;rounded=0;orthogonalLoop=1;jettySize=auto;html=1;strokeColor=default;strokeWidth=2;align=center;verticalAlign=middle;fontFamily=Helvetica;fontSize=11;fontColor=default;labelBackgroundColor=default;endArrow=classic;endFill=1;entryX=0.5;entryY=1;entryDx=0;entryDy=0;entryPerimeter=0;" edge="1" parent="1" target="YzImQExkG7niPv3KvhFZ-7">
          <mxGeometry relative="1" as="geometry">
            <mxPoint x="300" y="100" as="sourcePoint" />
          </mxGeometry>
        </mxCell>
        <mxCell id="YzImQExkG7niPv3KvhFZ-8" style="rounded=1;orthogonalLoop=1;jettySize=auto;html=1;exitX=0.67;exitY=0;exitDx=0;exitDy=0;exitPerimeter=0;strokeWidth=2;endArrow=classic;endFill=1;curved=0;jumpStyle=gap;entryX=0.5;entryY=1;entryDx=0;entryDy=0;entryPerimeter=0;" edge="1" parent="1" source="YzImQExkG7niPv3KvhFZ-7" target="YzImQExkG7niPv3KvhFZ-2">
          <mxGeometry relative="1" as="geometry">
            <mxPoint x="290" y="260" as="targetPoint" />
            <mxPoint x="493" y="170" as="sourcePoint" />
            <Array as="points" />
          </mxGeometry>
        </mxCell>
        <mxCell id="YzImQExkG7niPv3KvhFZ-10" value="$$a$$" style="text;html=1;align=center;verticalAlign=middle;resizable=0;points=[];autosize=1;strokeColor=none;fillColor=none;" vertex="1" parent="1">
          <mxGeometry x="220" y="240" width="55" height="30" as="geometry" />
        </mxCell>
        <mxCell id="YzImQExkG7niPv3KvhFZ-11" value="$$d$$" style="text;html=1;align=center;verticalAlign=middle;resizable=0;points=[];autosize=1;strokeColor=none;fillColor=none;" vertex="1" parent="1">
          <mxGeometry x="260" y="240" width="55" height="30" as="geometry" />
        </mxCell>
        <mxCell id="YzImQExkG7niPv3KvhFZ-12" value="$$b$$" style="text;html=1;align=center;verticalAlign=middle;resizable=0;points=[];autosize=1;strokeColor=none;fillColor=none;" vertex="1" parent="1">
          <mxGeometry x="320" y="240" width="55" height="30" as="geometry" />
        </mxCell>
        <mxCell id="YzImQExkG7niPv3KvhFZ-13" value="$$f$$" style="text;html=1;align=center;verticalAlign=middle;resizable=0;points=[];autosize=1;strokeColor=none;fillColor=none;" vertex="1" parent="1">
          <mxGeometry x="295" y="150" width="50" height="30" as="geometry" />
        </mxCell>
        <mxCell id="YzImQExkG7niPv3KvhFZ-14" value="$$e$$" style="text;html=1;align=center;verticalAlign=middle;resizable=0;points=[];autosize=1;strokeColor=none;fillColor=none;" vertex="1" parent="1">
          <mxGeometry x="280" y="90" width="55" height="30" as="geometry" />
        </mxCell>
        <mxCell id="YzImQExkG7niPv3KvhFZ-2" value="" style="verticalLabelPosition=bottom;verticalAlign=top;html=1;shape=mxgraph.basic.half_circle;fontFamily=Helvetica;fontSize=11;labelBackgroundColor=default;fillColor=#e1d5e7;strokeColor=#9673a6;flipV=1;points=[[0.33,0,0,0,0],[0.5,1,0,0,0],[0.67,0,0,0,0]];" vertex="1" parent="1">
          <mxGeometry x="300" y="190" width="40" height="20" as="geometry" />
        </mxCell>
        <mxCell id="YzImQExkG7niPv3KvhFZ-7" value="" style="verticalLabelPosition=bottom;verticalAlign=top;html=1;shape=mxgraph.basic.half_circle;fontFamily=Helvetica;fontSize=11;labelBackgroundColor=default;fillColor=#e1d5e7;strokeColor=#9673a6;flipV=1;points=[[0.33,0,0,0,0],[0.5,1,0,0,0],[0.67,0,0,0,0]];" vertex="1" parent="1">
          <mxGeometry x="280" y="130" width="40" height="20" as="geometry" />
        </mxCell>
        <mxCell id="YzImQExkG7niPv3KvhFZ-4" value="$$\lambda$$" style="text;html=1;align=center;verticalAlign=middle;resizable=0;points=[];autosize=1;strokeColor=none;fillColor=none;fontFamily=Helvetica;fontSize=11;fontColor=default;labelBackgroundColor=none;" vertex="1" parent="1">
          <mxGeometry x="257.5" y="125" width="85" height="30" as="geometry" />
        </mxCell>
        <mxCell id="YzImQExkG7niPv3KvhFZ-9" value="$$\kappa$$" style="text;html=1;align=center;verticalAlign=middle;resizable=0;points=[];autosize=1;strokeColor=none;fillColor=none;fontFamily=Helvetica;fontSize=11;fontColor=default;labelBackgroundColor=none;" vertex="1" parent="1">
          <mxGeometry x="280" y="185" width="80" height="30" as="geometry" />
        </mxCell>
      </root>
    </mxGraphModel>
  </diagram>
  <diagram id="t7SHEpKfNv3Q00pOAzgu" name="Page-22">
    <mxGraphModel dx="398" dy="399" grid="1" gridSize="5" guides="1" tooltips="1" connect="1" arrows="1" fold="1" page="1" pageScale="1" pageWidth="827" pageHeight="1169" math="1" shadow="0">
      <root>
        <mxCell id="0" />
        <mxCell id="1" parent="0" />
        <mxCell id="c0Y6Tt4PW75ihkPxpt_D-1" style="rounded=1;orthogonalLoop=1;jettySize=auto;html=1;strokeWidth=2;endArrow=classic;endFill=1;curved=0;jumpStyle=gap;exitX=0.67;exitY=0;exitDx=0;exitDy=0;exitPerimeter=0;" edge="1" parent="1" source="c0Y6Tt4PW75ihkPxpt_D-11">
          <mxGeometry relative="1" as="geometry">
            <mxPoint x="340" y="260" as="targetPoint" />
            <Array as="points" />
          </mxGeometry>
        </mxCell>
        <mxCell id="c0Y6Tt4PW75ihkPxpt_D-2" style="rounded=1;orthogonalLoop=1;jettySize=auto;html=1;exitX=0.33;exitY=0;exitDx=0;exitDy=0;exitPerimeter=0;strokeWidth=2;endArrow=classic;endFill=1;curved=0;jumpStyle=gap;" edge="1" parent="1" source="c0Y6Tt4PW75ihkPxpt_D-11">
          <mxGeometry relative="1" as="geometry">
            <mxPoint x="300" y="260" as="targetPoint" />
            <mxPoint x="293" y="220" as="sourcePoint" />
            <Array as="points" />
          </mxGeometry>
        </mxCell>
        <mxCell id="c0Y6Tt4PW75ihkPxpt_D-3" style="rounded=1;orthogonalLoop=1;jettySize=auto;html=1;exitX=0.33;exitY=0;exitDx=0;exitDy=0;exitPerimeter=0;strokeWidth=2;endArrow=classic;endFill=1;curved=0;jumpStyle=gap;" edge="1" parent="1" source="c0Y6Tt4PW75ihkPxpt_D-12">
          <mxGeometry relative="1" as="geometry">
            <mxPoint x="260" y="260" as="targetPoint" />
            <Array as="points" />
          </mxGeometry>
        </mxCell>
        <mxCell id="c0Y6Tt4PW75ihkPxpt_D-4" style="edgeStyle=orthogonalEdgeStyle;rounded=0;orthogonalLoop=1;jettySize=auto;html=1;strokeColor=default;strokeWidth=2;align=center;verticalAlign=middle;fontFamily=Helvetica;fontSize=11;fontColor=default;labelBackgroundColor=default;endArrow=classic;endFill=1;entryX=0.5;entryY=1;entryDx=0;entryDy=0;entryPerimeter=0;" edge="1" parent="1" target="c0Y6Tt4PW75ihkPxpt_D-12">
          <mxGeometry relative="1" as="geometry">
            <mxPoint x="300" y="100" as="sourcePoint" />
          </mxGeometry>
        </mxCell>
        <mxCell id="c0Y6Tt4PW75ihkPxpt_D-5" style="rounded=1;orthogonalLoop=1;jettySize=auto;html=1;exitX=0.67;exitY=0;exitDx=0;exitDy=0;exitPerimeter=0;strokeWidth=2;endArrow=classic;endFill=1;curved=0;jumpStyle=gap;entryX=0.5;entryY=1;entryDx=0;entryDy=0;entryPerimeter=0;" edge="1" parent="1" source="c0Y6Tt4PW75ihkPxpt_D-12" target="c0Y6Tt4PW75ihkPxpt_D-11">
          <mxGeometry relative="1" as="geometry">
            <mxPoint x="290" y="260" as="targetPoint" />
            <mxPoint x="493" y="170" as="sourcePoint" />
            <Array as="points" />
          </mxGeometry>
        </mxCell>
        <mxCell id="c0Y6Tt4PW75ihkPxpt_D-6" value="$$a$$" style="text;html=1;align=center;verticalAlign=middle;resizable=0;points=[];autosize=1;strokeColor=none;fillColor=none;" vertex="1" parent="1">
          <mxGeometry x="220" y="240" width="55" height="30" as="geometry" />
        </mxCell>
        <mxCell id="c0Y6Tt4PW75ihkPxpt_D-7" value="$$d$$" style="text;html=1;align=center;verticalAlign=middle;resizable=0;points=[];autosize=1;strokeColor=none;fillColor=none;" vertex="1" parent="1">
          <mxGeometry x="260" y="240" width="55" height="30" as="geometry" />
        </mxCell>
        <mxCell id="c0Y6Tt4PW75ihkPxpt_D-8" value="$$b$$" style="text;html=1;align=center;verticalAlign=middle;resizable=0;points=[];autosize=1;strokeColor=none;fillColor=none;" vertex="1" parent="1">
          <mxGeometry x="320" y="240" width="55" height="30" as="geometry" />
        </mxCell>
        <mxCell id="c0Y6Tt4PW75ihkPxpt_D-9" value="$$f$$" style="text;html=1;align=center;verticalAlign=middle;resizable=0;points=[];autosize=1;strokeColor=none;fillColor=none;" vertex="1" parent="1">
          <mxGeometry x="295" y="150" width="50" height="30" as="geometry" />
        </mxCell>
        <mxCell id="c0Y6Tt4PW75ihkPxpt_D-10" value="$$e$$" style="text;html=1;align=center;verticalAlign=middle;resizable=0;points=[];autosize=1;strokeColor=none;fillColor=none;" vertex="1" parent="1">
          <mxGeometry x="280" y="90" width="55" height="30" as="geometry" />
        </mxCell>
        <mxCell id="c0Y6Tt4PW75ihkPxpt_D-11" value="" style="verticalLabelPosition=bottom;verticalAlign=top;html=1;shape=mxgraph.basic.half_circle;fontFamily=Helvetica;fontSize=11;labelBackgroundColor=default;fillColor=#e1d5e7;strokeColor=#9673a6;flipV=1;points=[[0.33,0,0,0,0],[0.5,1,0,0,0],[0.67,0,0,0,0]];" vertex="1" parent="1">
          <mxGeometry x="300" y="190" width="40" height="20" as="geometry" />
        </mxCell>
        <mxCell id="c0Y6Tt4PW75ihkPxpt_D-12" value="" style="verticalLabelPosition=bottom;verticalAlign=top;html=1;shape=mxgraph.basic.half_circle;fontFamily=Helvetica;fontSize=11;labelBackgroundColor=default;fillColor=#e1d5e7;strokeColor=#9673a6;flipV=1;points=[[0.33,0,0,0,0],[0.5,1,0,0,0],[0.67,0,0,0,0]];" vertex="1" parent="1">
          <mxGeometry x="280" y="130" width="40" height="20" as="geometry" />
        </mxCell>
        <mxCell id="c0Y6Tt4PW75ihkPxpt_D-13" value="$$\lambda$$" style="text;html=1;align=center;verticalAlign=middle;resizable=0;points=[];autosize=1;strokeColor=none;fillColor=none;fontFamily=Helvetica;fontSize=11;fontColor=default;labelBackgroundColor=none;" vertex="1" parent="1">
          <mxGeometry x="257.5" y="125" width="85" height="30" as="geometry" />
        </mxCell>
        <mxCell id="c0Y6Tt4PW75ihkPxpt_D-14" value="$$\theta$$" style="text;html=1;align=center;verticalAlign=middle;resizable=0;points=[];autosize=1;strokeColor=none;fillColor=none;fontFamily=Helvetica;fontSize=11;fontColor=default;labelBackgroundColor=none;" vertex="1" parent="1">
          <mxGeometry x="282.5" y="185" width="75" height="30" as="geometry" />
        </mxCell>
      </root>
    </mxGraphModel>
  </diagram>
  <diagram id="T3yAfg5eI_UcqxuIH9cB" name="Page-23">
    <mxGraphModel dx="277" dy="279" grid="1" gridSize="5" guides="1" tooltips="1" connect="1" arrows="1" fold="1" page="1" pageScale="1" pageWidth="827" pageHeight="1169" math="1" shadow="0">
      <root>
        <mxCell id="0" />
        <mxCell id="1" parent="0" />
        <mxCell id="tLFx7oJ-bh6pKBK6jDtl-1" style="rounded=1;orthogonalLoop=1;jettySize=auto;html=1;strokeWidth=2;endArrow=classic;endFill=1;curved=0;jumpStyle=gap;exitX=0.67;exitY=0;exitDx=0;exitDy=0;exitPerimeter=0;" edge="1" parent="1" source="tLFx7oJ-bh6pKBK6jDtl-11">
          <mxGeometry relative="1" as="geometry">
            <mxPoint x="300" y="260" as="targetPoint" />
            <Array as="points" />
          </mxGeometry>
        </mxCell>
        <mxCell id="tLFx7oJ-bh6pKBK6jDtl-2" style="rounded=1;orthogonalLoop=1;jettySize=auto;html=1;exitX=0.33;exitY=0;exitDx=0;exitDy=0;exitPerimeter=0;strokeWidth=2;endArrow=classic;endFill=1;curved=0;jumpStyle=gap;" edge="1" parent="1" source="tLFx7oJ-bh6pKBK6jDtl-11">
          <mxGeometry relative="1" as="geometry">
            <mxPoint x="260" y="260" as="targetPoint" />
            <mxPoint x="293" y="220" as="sourcePoint" />
            <Array as="points" />
          </mxGeometry>
        </mxCell>
        <mxCell id="tLFx7oJ-bh6pKBK6jDtl-3" style="rounded=1;orthogonalLoop=1;jettySize=auto;html=1;strokeWidth=2;endArrow=classic;endFill=1;curved=0;jumpStyle=gap;exitX=0.67;exitY=0;exitDx=0;exitDy=0;exitPerimeter=0;" edge="1" parent="1" source="tLFx7oJ-bh6pKBK6jDtl-12">
          <mxGeometry relative="1" as="geometry">
            <mxPoint x="340" y="260" as="targetPoint" />
            <Array as="points" />
            <mxPoint x="320" y="170" as="sourcePoint" />
          </mxGeometry>
        </mxCell>
        <mxCell id="tLFx7oJ-bh6pKBK6jDtl-4" style="edgeStyle=orthogonalEdgeStyle;rounded=0;orthogonalLoop=1;jettySize=auto;html=1;strokeColor=default;strokeWidth=2;align=center;verticalAlign=middle;fontFamily=Helvetica;fontSize=11;fontColor=default;labelBackgroundColor=default;endArrow=classic;endFill=1;entryX=0.5;entryY=1;entryDx=0;entryDy=0;entryPerimeter=0;" edge="1" parent="1" target="tLFx7oJ-bh6pKBK6jDtl-12">
          <mxGeometry relative="1" as="geometry">
            <mxPoint x="300" y="100" as="sourcePoint" />
          </mxGeometry>
        </mxCell>
        <mxCell id="tLFx7oJ-bh6pKBK6jDtl-5" style="rounded=1;orthogonalLoop=1;jettySize=auto;html=1;exitX=0.33;exitY=0;exitDx=0;exitDy=0;exitPerimeter=0;strokeWidth=2;endArrow=classic;endFill=1;curved=0;jumpStyle=gap;entryX=0.5;entryY=1;entryDx=0;entryDy=0;entryPerimeter=0;" edge="1" parent="1" source="tLFx7oJ-bh6pKBK6jDtl-12" target="tLFx7oJ-bh6pKBK6jDtl-11">
          <mxGeometry relative="1" as="geometry">
            <mxPoint x="290" y="260" as="targetPoint" />
            <mxPoint x="493" y="170" as="sourcePoint" />
            <Array as="points" />
          </mxGeometry>
        </mxCell>
        <mxCell id="tLFx7oJ-bh6pKBK6jDtl-6" value="$$a$$" style="text;html=1;align=center;verticalAlign=middle;resizable=0;points=[];autosize=1;strokeColor=none;fillColor=none;" vertex="1" parent="1">
          <mxGeometry x="220" y="240" width="55" height="30" as="geometry" />
        </mxCell>
        <mxCell id="tLFx7oJ-bh6pKBK6jDtl-7" value="$$d$$" style="text;html=1;align=center;verticalAlign=middle;resizable=0;points=[];autosize=1;strokeColor=none;fillColor=none;" vertex="1" parent="1">
          <mxGeometry x="280" y="240" width="55" height="30" as="geometry" />
        </mxCell>
        <mxCell id="tLFx7oJ-bh6pKBK6jDtl-8" value="$$b$$" style="text;html=1;align=center;verticalAlign=middle;resizable=0;points=[];autosize=1;strokeColor=none;fillColor=none;" vertex="1" parent="1">
          <mxGeometry x="325" y="240" width="55" height="30" as="geometry" />
        </mxCell>
        <mxCell id="tLFx7oJ-bh6pKBK6jDtl-9" value="$$g$$" style="text;html=1;align=center;verticalAlign=middle;resizable=0;points=[];autosize=1;strokeColor=none;fillColor=none;" vertex="1" parent="1">
          <mxGeometry x="245" y="150" width="55" height="30" as="geometry" />
        </mxCell>
        <mxCell id="tLFx7oJ-bh6pKBK6jDtl-10" value="$$e$$" style="text;html=1;align=center;verticalAlign=middle;resizable=0;points=[];autosize=1;strokeColor=none;fillColor=none;" vertex="1" parent="1">
          <mxGeometry x="280" y="90" width="55" height="30" as="geometry" />
        </mxCell>
        <mxCell id="tLFx7oJ-bh6pKBK6jDtl-11" value="" style="verticalLabelPosition=bottom;verticalAlign=top;html=1;shape=mxgraph.basic.half_circle;fontFamily=Helvetica;fontSize=11;labelBackgroundColor=default;fillColor=#e1d5e7;strokeColor=#9673a6;flipV=1;points=[[0.33,0,0,0,0],[0.5,1,0,0,0],[0.67,0,0,0,0]];" vertex="1" parent="1">
          <mxGeometry x="260" y="190" width="40" height="20" as="geometry" />
        </mxCell>
        <mxCell id="tLFx7oJ-bh6pKBK6jDtl-12" value="" style="verticalLabelPosition=bottom;verticalAlign=top;html=1;shape=mxgraph.basic.half_circle;fontFamily=Helvetica;fontSize=11;labelBackgroundColor=default;fillColor=#e1d5e7;strokeColor=#9673a6;flipV=1;points=[[0.33,0,0,0,0],[0.5,1,0,0,0],[0.67,0,0,0,0]];" vertex="1" parent="1">
          <mxGeometry x="280" y="130" width="40" height="20" as="geometry" />
        </mxCell>
        <mxCell id="tLFx7oJ-bh6pKBK6jDtl-13" value="$$\beta$$" style="text;html=1;align=center;verticalAlign=middle;resizable=0;points=[];autosize=1;strokeColor=none;fillColor=none;fontFamily=Helvetica;fontSize=11;fontColor=default;labelBackgroundColor=none;" vertex="1" parent="1">
          <mxGeometry x="265" y="125" width="70" height="30" as="geometry" />
        </mxCell>
        <mxCell id="tLFx7oJ-bh6pKBK6jDtl-14" value="$$\alpha$$" style="text;html=1;align=center;verticalAlign=middle;resizable=0;points=[];autosize=1;strokeColor=none;fillColor=none;fontFamily=Helvetica;fontSize=11;fontColor=default;labelBackgroundColor=none;" vertex="1" parent="1">
          <mxGeometry x="242.5" y="185" width="75" height="30" as="geometry" />
        </mxCell>
      </root>
    </mxGraphModel>
  </diagram>
  <diagram id="w7VoVC8WRTK1lo6nef3M" name="Page-24">
    <mxGraphModel dx="277" dy="279" grid="1" gridSize="5" guides="1" tooltips="1" connect="1" arrows="1" fold="1" page="1" pageScale="1" pageWidth="827" pageHeight="1169" math="1" shadow="0">
      <root>
        <mxCell id="0" />
        <mxCell id="1" parent="0" />
        <mxCell id="KYlRSv_oIUmI6KlvhXlt-1" style="rounded=1;orthogonalLoop=1;jettySize=auto;html=1;exitX=0.33;exitY=0;exitDx=0;exitDy=0;exitPerimeter=0;strokeWidth=2;endArrow=classic;endFill=1;curved=0;jumpStyle=gap;" edge="1" parent="1" source="KYlRSv_oIUmI6KlvhXlt-13">
          <mxGeometry relative="1" as="geometry">
            <mxPoint x="260" y="260" as="targetPoint" />
            <Array as="points" />
          </mxGeometry>
        </mxCell>
        <mxCell id="KYlRSv_oIUmI6KlvhXlt-2" style="rounded=1;orthogonalLoop=1;jettySize=auto;html=1;exitX=0.67;exitY=0;exitDx=0;exitDy=0;exitPerimeter=0;strokeWidth=2;endArrow=classic;endFill=1;curved=0;jumpStyle=gap;" edge="1" parent="1" source="KYlRSv_oIUmI6KlvhXlt-13">
          <mxGeometry relative="1" as="geometry">
            <mxPoint x="340" y="260" as="targetPoint" />
            <mxPoint x="293" y="220" as="sourcePoint" />
            <Array as="points" />
          </mxGeometry>
        </mxCell>
        <mxCell id="KYlRSv_oIUmI6KlvhXlt-3" style="rounded=1;orthogonalLoop=1;jettySize=auto;html=1;exitX=0.67;exitY=0;exitDx=0;exitDy=0;exitPerimeter=0;strokeWidth=2;endArrow=classic;endFill=1;curved=0;jumpStyle=gap;entryX=0.5;entryY=1;entryDx=0;entryDy=0;entryPerimeter=0;" edge="1" parent="1" source="KYlRSv_oIUmI6KlvhXlt-11" target="KYlRSv_oIUmI6KlvhXlt-13">
          <mxGeometry relative="1" as="geometry">
            <mxPoint x="460" y="210" as="targetPoint" />
            <Array as="points" />
          </mxGeometry>
        </mxCell>
        <mxCell id="KYlRSv_oIUmI6KlvhXlt-4" style="edgeStyle=orthogonalEdgeStyle;rounded=0;orthogonalLoop=1;jettySize=auto;html=1;strokeColor=default;strokeWidth=2;align=center;verticalAlign=middle;fontFamily=Helvetica;fontSize=11;fontColor=default;labelBackgroundColor=default;endArrow=classic;endFill=1;entryX=0.5;entryY=1;entryDx=0;entryDy=0;entryPerimeter=0;" edge="1" parent="1" target="KYlRSv_oIUmI6KlvhXlt-11">
          <mxGeometry relative="1" as="geometry">
            <mxPoint x="300" y="100" as="sourcePoint" />
          </mxGeometry>
        </mxCell>
        <mxCell id="KYlRSv_oIUmI6KlvhXlt-5" style="rounded=1;orthogonalLoop=1;jettySize=auto;html=1;strokeWidth=2;endArrow=classic;endFill=1;curved=0;jumpStyle=gap;exitX=0.33;exitY=0;exitDx=0;exitDy=0;exitPerimeter=0;" edge="1" parent="1" source="KYlRSv_oIUmI6KlvhXlt-11">
          <mxGeometry relative="1" as="geometry">
            <mxPoint x="300" y="260" as="targetPoint" />
            <mxPoint x="493" y="170" as="sourcePoint" />
            <Array as="points">
              <mxPoint x="270" y="220" />
            </Array>
          </mxGeometry>
        </mxCell>
        <mxCell id="KYlRSv_oIUmI6KlvhXlt-6" value="$$a$$" style="text;html=1;align=center;verticalAlign=middle;resizable=0;points=[];autosize=1;strokeColor=none;fillColor=none;" vertex="1" parent="1">
          <mxGeometry x="215" y="240" width="55" height="30" as="geometry" />
        </mxCell>
        <mxCell id="KYlRSv_oIUmI6KlvhXlt-7" value="$$d$$" style="text;html=1;align=center;verticalAlign=middle;resizable=0;points=[];autosize=1;strokeColor=none;fillColor=none;" vertex="1" parent="1">
          <mxGeometry x="280" y="240" width="55" height="30" as="geometry" />
        </mxCell>
        <mxCell id="KYlRSv_oIUmI6KlvhXlt-8" value="$$b$$" style="text;html=1;align=center;verticalAlign=middle;resizable=0;points=[];autosize=1;strokeColor=none;fillColor=none;" vertex="1" parent="1">
          <mxGeometry x="325" y="240" width="55" height="30" as="geometry" />
        </mxCell>
        <mxCell id="KYlRSv_oIUmI6KlvhXlt-9" value="$$c$$" style="text;html=1;align=center;verticalAlign=middle;resizable=0;points=[];autosize=1;strokeColor=none;fillColor=none;" vertex="1" parent="1">
          <mxGeometry x="295" y="150" width="55" height="30" as="geometry" />
        </mxCell>
        <mxCell id="KYlRSv_oIUmI6KlvhXlt-10" value="$$e$$" style="text;html=1;align=center;verticalAlign=middle;resizable=0;points=[];autosize=1;strokeColor=none;fillColor=none;" vertex="1" parent="1">
          <mxGeometry x="280" y="88" width="55" height="30" as="geometry" />
        </mxCell>
        <mxCell id="KYlRSv_oIUmI6KlvhXlt-11" value="" style="verticalLabelPosition=bottom;verticalAlign=top;html=1;shape=mxgraph.basic.half_circle;fontFamily=Helvetica;fontSize=11;labelBackgroundColor=default;fillColor=#e1d5e7;strokeColor=#9673a6;flipV=1;points=[[0.33,0,0,0,0],[0.5,1,0,0,0],[0.67,0,0,0,0]];" vertex="1" parent="1">
          <mxGeometry x="280" y="130" width="40" height="20" as="geometry" />
        </mxCell>
        <mxCell id="KYlRSv_oIUmI6KlvhXlt-12" value="$$\rho$$" style="text;html=1;align=center;verticalAlign=middle;resizable=0;points=[];autosize=1;strokeColor=none;fillColor=none;fontFamily=Helvetica;fontSize=11;fontColor=default;labelBackgroundColor=none;" vertex="1" parent="1">
          <mxGeometry x="268" y="125" width="65" height="30" as="geometry" />
        </mxCell>
        <mxCell id="KYlRSv_oIUmI6KlvhXlt-13" value="" style="verticalLabelPosition=bottom;verticalAlign=top;html=1;shape=mxgraph.basic.half_circle;fontFamily=Helvetica;fontSize=11;labelBackgroundColor=default;fillColor=#e1d5e7;strokeColor=#9673a6;flipV=1;points=[[0.33,0,0,0,0],[0.5,1,0,0,0],[0.67,0,0,0,0]];" vertex="1" parent="1">
          <mxGeometry x="300" y="190" width="40" height="20" as="geometry" />
        </mxCell>
        <mxCell id="KYlRSv_oIUmI6KlvhXlt-14" value="$$\mu$$" style="text;html=1;align=center;verticalAlign=middle;resizable=0;points=[];autosize=1;strokeColor=none;fillColor=none;fontFamily=Helvetica;fontSize=11;fontColor=default;labelBackgroundColor=none;" vertex="1" parent="1">
          <mxGeometry x="285" y="185" width="70" height="30" as="geometry" />
        </mxCell>
      </root>
    </mxGraphModel>
  </diagram>
  <diagram id="HXzW1AL5_DUZ3bLFMpra" name="Page-25">
    <mxGraphModel dx="331" dy="333" grid="1" gridSize="5" guides="1" tooltips="1" connect="1" arrows="1" fold="1" page="1" pageScale="1" pageWidth="827" pageHeight="1169" math="1" shadow="0">
      <root>
        <mxCell id="0" />
        <mxCell id="1" parent="0" />
        <mxCell id="MgilKKTHOhbRLWrjcdXQ-3" style="rounded=1;orthogonalLoop=1;jettySize=auto;html=1;exitX=0.33;exitY=0;exitDx=0;exitDy=0;exitPerimeter=0;strokeWidth=2;endArrow=classic;endFill=1;curved=0;jumpStyle=gap;entryX=0.5;entryY=1;entryDx=0;entryDy=0;entryPerimeter=0;" edge="1" parent="1" source="MgilKKTHOhbRLWrjcdXQ-11" target="MgilKKTHOhbRLWrjcdXQ-13">
          <mxGeometry relative="1" as="geometry">
            <mxPoint x="460" y="210" as="targetPoint" />
            <Array as="points" />
          </mxGeometry>
        </mxCell>
        <mxCell id="MgilKKTHOhbRLWrjcdXQ-4" style="edgeStyle=orthogonalEdgeStyle;rounded=0;orthogonalLoop=1;jettySize=auto;html=1;strokeColor=default;strokeWidth=2;align=center;verticalAlign=middle;fontFamily=Helvetica;fontSize=11;fontColor=default;labelBackgroundColor=default;endArrow=classic;endFill=1;entryX=0.5;entryY=1;entryDx=0;entryDy=0;entryPerimeter=0;" edge="1" parent="1" target="MgilKKTHOhbRLWrjcdXQ-11">
          <mxGeometry relative="1" as="geometry">
            <mxPoint x="300" y="100" as="sourcePoint" />
          </mxGeometry>
        </mxCell>
        <mxCell id="MgilKKTHOhbRLWrjcdXQ-6" value="$$a$$" style="text;html=1;align=center;verticalAlign=middle;resizable=0;points=[];autosize=1;strokeColor=none;fillColor=none;" vertex="1" parent="1">
          <mxGeometry x="225" y="240" width="55" height="30" as="geometry" />
        </mxCell>
        <mxCell id="MgilKKTHOhbRLWrjcdXQ-7" value="$$d$$" style="text;html=1;align=center;verticalAlign=middle;resizable=0;points=[];autosize=1;strokeColor=none;fillColor=none;" vertex="1" parent="1">
          <mxGeometry x="280" y="240" width="55" height="30" as="geometry" />
        </mxCell>
        <mxCell id="MgilKKTHOhbRLWrjcdXQ-8" value="$$b$$" style="text;html=1;align=center;verticalAlign=middle;resizable=0;points=[];autosize=1;strokeColor=none;fillColor=none;" vertex="1" parent="1">
          <mxGeometry x="320" y="240" width="55" height="30" as="geometry" />
        </mxCell>
        <mxCell id="MgilKKTHOhbRLWrjcdXQ-9" value="$$g$$" style="text;html=1;align=center;verticalAlign=middle;resizable=0;points=[];autosize=1;strokeColor=none;fillColor=none;" vertex="1" parent="1">
          <mxGeometry x="245" y="150" width="55" height="30" as="geometry" />
        </mxCell>
        <mxCell id="MgilKKTHOhbRLWrjcdXQ-10" value="$$e$$" style="text;html=1;align=center;verticalAlign=middle;resizable=0;points=[];autosize=1;strokeColor=none;fillColor=none;" vertex="1" parent="1">
          <mxGeometry x="280" y="88" width="55" height="30" as="geometry" />
        </mxCell>
        <mxCell id="Wze4ZK_If6hWFg6zyYPk-1" style="rounded=1;orthogonalLoop=1;jettySize=auto;html=1;exitX=0.67;exitY=0;exitDx=0;exitDy=0;exitPerimeter=0;strokeColor=default;strokeWidth=2;align=center;verticalAlign=middle;fontFamily=Helvetica;fontSize=11;fontColor=default;labelBackgroundColor=default;jumpStyle=gap;endArrow=classic;endFill=1;curved=0;" edge="1" parent="1" source="MgilKKTHOhbRLWrjcdXQ-11">
          <mxGeometry relative="1" as="geometry">
            <mxPoint x="340" y="260" as="targetPoint" />
          </mxGeometry>
        </mxCell>
        <mxCell id="MgilKKTHOhbRLWrjcdXQ-11" value="" style="verticalLabelPosition=bottom;verticalAlign=top;html=1;shape=mxgraph.basic.half_circle;fontFamily=Helvetica;fontSize=11;labelBackgroundColor=default;fillColor=#e1d5e7;strokeColor=#9673a6;flipV=1;points=[[0.33,0,0,0,0],[0.5,1,0,0,0],[0.67,0,0,0,0]];" vertex="1" parent="1">
          <mxGeometry x="280" y="130" width="40" height="20" as="geometry" />
        </mxCell>
        <mxCell id="MgilKKTHOhbRLWrjcdXQ-12" value="$$\gamma$$" style="text;html=1;align=center;verticalAlign=middle;resizable=0;points=[];autosize=1;strokeColor=none;fillColor=none;fontFamily=Helvetica;fontSize=11;fontColor=default;labelBackgroundColor=none;" vertex="1" parent="1">
          <mxGeometry x="257.5" y="125" width="85" height="30" as="geometry" />
        </mxCell>
        <mxCell id="MgilKKTHOhbRLWrjcdXQ-2" style="rounded=1;orthogonalLoop=1;jettySize=auto;html=1;exitX=0.67;exitY=0;exitDx=0;exitDy=0;exitPerimeter=0;strokeWidth=2;endArrow=classic;endFill=1;curved=0;jumpStyle=gap;" edge="1" parent="1" source="MgilKKTHOhbRLWrjcdXQ-13">
          <mxGeometry relative="1" as="geometry">
            <mxPoint x="260" y="260" as="targetPoint" />
            <mxPoint x="293" y="220" as="sourcePoint" />
            <Array as="points">
              <mxPoint x="285" y="220" />
            </Array>
          </mxGeometry>
        </mxCell>
        <mxCell id="MgilKKTHOhbRLWrjcdXQ-1" style="rounded=1;orthogonalLoop=1;jettySize=auto;html=1;exitX=0.33;exitY=0;exitDx=0;exitDy=0;exitPerimeter=0;strokeWidth=2;endArrow=classic;endFill=1;curved=0;jumpStyle=gap;" edge="1" parent="1" source="MgilKKTHOhbRLWrjcdXQ-13">
          <mxGeometry relative="1" as="geometry">
            <mxPoint x="300" y="260" as="targetPoint" />
            <Array as="points">
              <mxPoint x="275" y="220" />
            </Array>
          </mxGeometry>
        </mxCell>
        <mxCell id="MgilKKTHOhbRLWrjcdXQ-13" value="" style="verticalLabelPosition=bottom;verticalAlign=top;html=1;shape=mxgraph.basic.half_circle;fontFamily=Helvetica;fontSize=11;labelBackgroundColor=default;fillColor=#e1d5e7;strokeColor=#9673a6;flipV=1;points=[[0.33,0,0,0,0],[0.5,1,0,0,0],[0.67,0,0,0,0]];" vertex="1" parent="1">
          <mxGeometry x="260" y="190" width="40" height="20" as="geometry" />
        </mxCell>
        <mxCell id="MgilKKTHOhbRLWrjcdXQ-14" value="$$\sigma$$" style="text;html=1;align=center;verticalAlign=middle;resizable=0;points=[];autosize=1;strokeColor=none;fillColor=none;fontFamily=Helvetica;fontSize=11;fontColor=default;labelBackgroundColor=none;" vertex="1" parent="1">
          <mxGeometry x="240" y="185" width="80" height="30" as="geometry" />
        </mxCell>
      </root>
    </mxGraphModel>
  </diagram>
  <diagram id="UgWGhVP99Q_vfy5vaWYy" name="Page-26">
    <mxGraphModel dx="331" dy="333" grid="1" gridSize="5" guides="1" tooltips="1" connect="1" arrows="1" fold="1" page="1" pageScale="1" pageWidth="827" pageHeight="1169" math="1" shadow="0">
      <root>
        <mxCell id="0" />
        <mxCell id="1" parent="0" />
        <mxCell id="GCrcnThOM2pX5Leg7ayR-4" value="" style="edgeStyle=none;orthogonalLoop=1;jettySize=auto;html=1;rounded=1;curved=0;" edge="1" parent="1">
          <mxGeometry width="80" relative="1" as="geometry">
            <mxPoint x="450" y="380" as="sourcePoint" />
            <mxPoint x="470" y="420" as="targetPoint" />
            <Array as="points">
              <mxPoint x="450" y="375" />
              <mxPoint x="455" y="370" />
              <mxPoint x="460" y="370" />
              <mxPoint x="470" y="385" />
              <mxPoint x="470" y="400" />
            </Array>
          </mxGeometry>
        </mxCell>
        <mxCell id="GCrcnThOM2pX5Leg7ayR-3" value="" style="edgeStyle=none;orthogonalLoop=1;jettySize=auto;html=1;rounded=1;curved=0;jumpStyle=gap;endArrow=none;endFill=0;" edge="1" parent="1">
          <mxGeometry width="80" relative="1" as="geometry">
            <mxPoint x="470" y="340" as="sourcePoint" />
            <mxPoint x="450" y="380" as="targetPoint" />
            <Array as="points">
              <mxPoint x="470" y="360" />
              <mxPoint x="470" y="375" />
              <mxPoint x="460" y="390" />
              <mxPoint x="455" y="390" />
              <mxPoint x="450" y="385" />
            </Array>
          </mxGeometry>
        </mxCell>
        <mxCell id="Hyy2_mZATqSbOo5N_Myb-1" value="$$a$$" style="text;align=center;verticalAlign=middle;resizable=0;points=[];autosize=1;strokeColor=none;fillColor=none;html=1;" vertex="1" parent="1">
          <mxGeometry x="450" y="340" width="60" height="30" as="geometry" />
        </mxCell>
      </root>
    </mxGraphModel>
  </diagram>
  <diagram id="RMSbEB0_5Oxn1Mbup2xm" name="Page-27">
    <mxGraphModel dx="331" dy="333" grid="1" gridSize="5" guides="1" tooltips="1" connect="1" arrows="1" fold="1" page="1" pageScale="1" pageWidth="827" pageHeight="1169" math="1" shadow="0">
      <root>
        <mxCell id="0" />
        <mxCell id="1" parent="0" />
        <mxCell id="JfFkcGM4Ibcc1lfrYdmy-3" value="" style="rounded=1;orthogonalLoop=1;jettySize=auto;strokeColor=default;strokeWidth=2;align=center;verticalAlign=middle;fontFamily=Helvetica;fontSize=11;fontColor=default;labelBackgroundColor=default;endArrow=classic;endFill=1;entryX=0.67;entryY=0;entryDx=0;entryDy=0;entryPerimeter=0;html=1;" edge="1" parent="1" target="JfFkcGM4Ibcc1lfrYdmy-1">
          <mxGeometry relative="1" as="geometry">
            <mxPoint x="360" y="220" as="sourcePoint" />
            <mxPoint x="359.49" y="235" as="targetPoint" />
          </mxGeometry>
        </mxCell>
        <mxCell id="W6IjGnE1ifmMgRUlktoB-1" value="$$a$$" style="text;align=center;verticalAlign=middle;resizable=0;points=[];autosize=1;strokeColor=none;fillColor=none;html=1;" vertex="1" parent="1">
          <mxGeometry x="340" y="380" width="60" height="30" as="geometry" />
        </mxCell>
        <mxCell id="W6IjGnE1ifmMgRUlktoB-2" value="$$b$$" style="text;align=center;verticalAlign=middle;resizable=0;points=[];autosize=1;strokeColor=none;fillColor=none;html=1;" vertex="1" parent="1">
          <mxGeometry x="320" y="290" width="60" height="30" as="geometry" />
        </mxCell>
        <mxCell id="W6IjGnE1ifmMgRUlktoB-4" value="" style="rounded=1;orthogonalLoop=1;jettySize=auto;exitX=0.33;exitY=0;exitDx=0;exitDy=0;exitPerimeter=0;strokeWidth=2;endArrow=classic;endFill=1;curved=0;jumpStyle=gap;html=1;" edge="1" parent="1" source="W6IjGnE1ifmMgRUlktoB-7">
          <mxGeometry relative="1" as="geometry">
            <mxPoint x="360" y="400" as="targetPoint" />
            <Array as="points">
              <mxPoint x="335" y="360" />
            </Array>
          </mxGeometry>
        </mxCell>
        <mxCell id="W6IjGnE1ifmMgRUlktoB-5" value="" style="edgeStyle=orthogonalEdgeStyle;rounded=0;orthogonalLoop=1;jettySize=auto;strokeColor=default;strokeWidth=2;align=center;verticalAlign=middle;fontFamily=Helvetica;fontSize=11;fontColor=default;labelBackgroundColor=default;endArrow=classic;endFill=1;entryX=0.5;entryY=1;entryDx=0;entryDy=0;entryPerimeter=0;html=1;exitX=0.5;exitY=1;exitDx=0;exitDy=0;exitPerimeter=0;" edge="1" parent="1" target="W6IjGnE1ifmMgRUlktoB-7" source="JfFkcGM4Ibcc1lfrYdmy-1">
          <mxGeometry relative="1" as="geometry">
            <mxPoint x="340" y="300" as="sourcePoint" />
          </mxGeometry>
        </mxCell>
        <mxCell id="W6IjGnE1ifmMgRUlktoB-6" value="" style="rounded=1;orthogonalLoop=1;jettySize=auto;exitX=0.67;exitY=0;exitDx=0;exitDy=0;exitPerimeter=0;strokeWidth=2;endArrow=classic;endFill=1;curved=0;jumpStyle=gap;html=1;entryX=0.33;entryY=0;entryDx=0;entryDy=0;entryPerimeter=0;" edge="1" parent="1" source="W6IjGnE1ifmMgRUlktoB-7" target="JfFkcGM4Ibcc1lfrYdmy-1">
          <mxGeometry relative="1" as="geometry">
            <mxPoint x="335" y="245" as="targetPoint" />
            <mxPoint x="353" y="360" as="sourcePoint" />
            <Array as="points">
              <mxPoint x="345" y="360" />
              <mxPoint x="320" y="400" />
              <mxPoint x="310" y="400" />
              <mxPoint x="310" y="220" />
              <mxPoint x="320" y="220" />
            </Array>
          </mxGeometry>
        </mxCell>
        <mxCell id="W6IjGnE1ifmMgRUlktoB-7" value="" style="verticalLabelPosition=bottom;verticalAlign=top;shape=mxgraph.basic.half_circle;fontFamily=Helvetica;fontSize=11;labelBackgroundColor=default;fillColor=#e1d5e7;strokeColor=#9673a6;flipV=1;points=[[0.33,0,0,0,0],[0.5,1,0,0,0],[0.67,0,0,0,0]];html=1;" vertex="1" parent="1">
          <mxGeometry x="320" y="330" width="40" height="20" as="geometry" />
        </mxCell>
        <mxCell id="W6IjGnE1ifmMgRUlktoB-8" value="$$\mu$$" style="text;align=center;verticalAlign=middle;resizable=0;points=[];autosize=1;strokeColor=none;fillColor=none;fontFamily=Helvetica;fontSize=11;fontColor=default;labelBackgroundColor=none;html=1;" vertex="1" parent="1">
          <mxGeometry x="305" y="325" width="70" height="30" as="geometry" />
        </mxCell>
        <mxCell id="JfFkcGM4Ibcc1lfrYdmy-1" value="" style="verticalLabelPosition=bottom;verticalAlign=top;shape=mxgraph.basic.half_circle;fontFamily=Helvetica;fontSize=11;labelBackgroundColor=default;fillColor=#e1d5e7;strokeColor=#9673a6;flipV=0;points=[[0.33,0,0,0,0],[0.5,1,0,0,0],[0.67,0,0,0,0]];html=1;" vertex="1" parent="1">
          <mxGeometry x="320" y="270" width="40" height="20" as="geometry" />
        </mxCell>
        <mxCell id="JfFkcGM4Ibcc1lfrYdmy-2" value="$$\mu$$" style="text;align=center;verticalAlign=middle;resizable=0;points=[];autosize=1;strokeColor=none;fillColor=none;fontFamily=Helvetica;fontSize=11;fontColor=default;labelBackgroundColor=none;html=1;" vertex="1" parent="1">
          <mxGeometry x="308" y="265" width="65" height="30" as="geometry" />
        </mxCell>
        <mxCell id="JfFkcGM4Ibcc1lfrYdmy-4" value="$$a$$" style="text;align=center;verticalAlign=middle;resizable=0;points=[];autosize=1;strokeColor=none;fillColor=none;html=1;" vertex="1" parent="1">
          <mxGeometry x="270" y="295" width="60" height="30" as="geometry" />
        </mxCell>
        <mxCell id="_3yV8WHiXHB7uZUgDOcl-1" value="$$a$$" style="text;align=center;verticalAlign=middle;resizable=0;points=[];autosize=1;strokeColor=none;fillColor=none;html=1;" vertex="1" parent="1">
          <mxGeometry x="340" y="210" width="60" height="30" as="geometry" />
        </mxCell>
      </root>
    </mxGraphModel>
  </diagram>
  <diagram id="aezFY1PHTUF307yYtjC0" name="Page-28">
    <mxGraphModel dx="221" dy="386" grid="1" gridSize="5" guides="1" tooltips="1" connect="1" arrows="1" fold="1" page="1" pageScale="1" pageWidth="827" pageHeight="1169" math="1" shadow="0">
      <root>
        <mxCell id="0" />
        <mxCell id="1" parent="0" />
        <mxCell id="SGRi9FBDf940KsHdnp9R-1" value="" style="rounded=1;orthogonalLoop=1;jettySize=auto;strokeColor=default;strokeWidth=2;align=center;verticalAlign=middle;fontFamily=Helvetica;fontSize=11;fontColor=default;labelBackgroundColor=default;endArrow=classic;endFill=1;entryX=0.67;entryY=0;entryDx=0;entryDy=0;entryPerimeter=0;html=1;" edge="1" parent="1" target="SGRi9FBDf940KsHdnp9R-9">
          <mxGeometry relative="1" as="geometry">
            <mxPoint x="360" y="220" as="sourcePoint" />
            <mxPoint x="359.49" y="235" as="targetPoint" />
          </mxGeometry>
        </mxCell>
        <mxCell id="SGRi9FBDf940KsHdnp9R-2" value="$$a$$" style="text;align=center;verticalAlign=middle;resizable=0;points=[];autosize=1;strokeColor=none;fillColor=none;html=1;" vertex="1" parent="1">
          <mxGeometry x="340" y="380" width="60" height="30" as="geometry" />
        </mxCell>
        <mxCell id="SGRi9FBDf940KsHdnp9R-3" value="$$b$$" style="text;align=center;verticalAlign=middle;resizable=0;points=[];autosize=1;strokeColor=none;fillColor=none;html=1;" vertex="1" parent="1">
          <mxGeometry x="320" y="290" width="60" height="30" as="geometry" />
        </mxCell>
        <mxCell id="SGRi9FBDf940KsHdnp9R-4" value="" style="rounded=1;orthogonalLoop=1;jettySize=auto;exitX=0.67;exitY=0;exitDx=0;exitDy=0;exitPerimeter=0;strokeWidth=2;endArrow=classic;endFill=1;curved=0;jumpStyle=gap;html=1;" edge="1" parent="1" source="SGRi9FBDf940KsHdnp9R-7">
          <mxGeometry relative="1" as="geometry">
            <mxPoint x="360" y="400" as="targetPoint" />
            <Array as="points" />
          </mxGeometry>
        </mxCell>
        <mxCell id="SGRi9FBDf940KsHdnp9R-5" value="" style="edgeStyle=orthogonalEdgeStyle;rounded=0;orthogonalLoop=1;jettySize=auto;strokeColor=default;strokeWidth=2;align=center;verticalAlign=middle;fontFamily=Helvetica;fontSize=11;fontColor=default;labelBackgroundColor=default;endArrow=classic;endFill=1;entryX=0.5;entryY=1;entryDx=0;entryDy=0;entryPerimeter=0;html=1;exitX=0.5;exitY=1;exitDx=0;exitDy=0;exitPerimeter=0;" edge="1" parent="1" source="SGRi9FBDf940KsHdnp9R-9" target="SGRi9FBDf940KsHdnp9R-7">
          <mxGeometry relative="1" as="geometry">
            <mxPoint x="340" y="300" as="sourcePoint" />
          </mxGeometry>
        </mxCell>
        <mxCell id="SGRi9FBDf940KsHdnp9R-6" value="" style="rounded=1;orthogonalLoop=1;jettySize=auto;exitX=0.33;exitY=0;exitDx=0;exitDy=0;exitPerimeter=0;strokeWidth=2;endArrow=classic;endFill=1;curved=0;jumpStyle=gap;html=1;entryX=0.33;entryY=0;entryDx=0;entryDy=0;entryPerimeter=0;" edge="1" parent="1" source="SGRi9FBDf940KsHdnp9R-7" target="SGRi9FBDf940KsHdnp9R-9">
          <mxGeometry relative="1" as="geometry">
            <mxPoint x="335" y="245" as="targetPoint" />
            <mxPoint x="353" y="360" as="sourcePoint" />
            <Array as="points">
              <mxPoint x="320" y="400" />
              <mxPoint x="310" y="400" />
              <mxPoint x="310" y="220" />
              <mxPoint x="320" y="220" />
            </Array>
          </mxGeometry>
        </mxCell>
        <mxCell id="SGRi9FBDf940KsHdnp9R-7" value="" style="verticalLabelPosition=bottom;verticalAlign=top;shape=mxgraph.basic.half_circle;fontFamily=Helvetica;fontSize=11;labelBackgroundColor=default;fillColor=#e1d5e7;strokeColor=#9673a6;flipV=1;points=[[0.33,0,0,0,0],[0.5,1,0,0,0],[0.67,0,0,0,0]];html=1;" vertex="1" parent="1">
          <mxGeometry x="320" y="330" width="40" height="20" as="geometry" />
        </mxCell>
        <mxCell id="SGRi9FBDf940KsHdnp9R-8" value="$$\nu$$" style="text;align=center;verticalAlign=middle;resizable=0;points=[];autosize=1;strokeColor=none;fillColor=none;fontFamily=Helvetica;fontSize=11;fontColor=default;labelBackgroundColor=none;html=1;" vertex="1" parent="1">
          <mxGeometry x="310" y="325" width="60" height="30" as="geometry" />
        </mxCell>
        <mxCell id="SGRi9FBDf940KsHdnp9R-9" value="" style="verticalLabelPosition=bottom;verticalAlign=top;shape=mxgraph.basic.half_circle;fontFamily=Helvetica;fontSize=11;labelBackgroundColor=default;fillColor=#e1d5e7;strokeColor=#9673a6;flipV=0;points=[[0.33,0,0,0,0],[0.5,1,0,0,0],[0.67,0,0,0,0]];html=1;" vertex="1" parent="1">
          <mxGeometry x="320" y="270" width="40" height="20" as="geometry" />
        </mxCell>
        <mxCell id="SGRi9FBDf940KsHdnp9R-10" value="$$\mu$$" style="text;align=center;verticalAlign=middle;resizable=0;points=[];autosize=1;strokeColor=none;fillColor=none;fontFamily=Helvetica;fontSize=11;fontColor=default;labelBackgroundColor=none;html=1;" vertex="1" parent="1">
          <mxGeometry x="308" y="265" width="65" height="30" as="geometry" />
        </mxCell>
        <mxCell id="SGRi9FBDf940KsHdnp9R-11" value="$$a$$" style="text;align=center;verticalAlign=middle;resizable=0;points=[];autosize=1;strokeColor=none;fillColor=none;html=1;" vertex="1" parent="1">
          <mxGeometry x="270" y="295" width="60" height="30" as="geometry" />
        </mxCell>
        <mxCell id="XQ2aDaC9AsG56-IjHLYL-1" value="$$a$$" style="text;align=center;verticalAlign=middle;resizable=0;points=[];autosize=1;strokeColor=none;fillColor=none;html=1;" vertex="1" parent="1">
          <mxGeometry x="340" y="210" width="60" height="30" as="geometry" />
        </mxCell>
      </root>
    </mxGraphModel>
  </diagram>
  <diagram id="z50IzC5IsIO4qRH42nz5" name="Page-29">
    <mxGraphModel dx="318" dy="556" grid="1" gridSize="5" guides="1" tooltips="1" connect="1" arrows="1" fold="1" page="1" pageScale="1" pageWidth="827" pageHeight="1169" math="1" shadow="0">
      <root>
        <mxCell id="0" />
        <mxCell id="1" parent="0" />
        <mxCell id="XV6XXHB6J6w0AaUdaMAE-1" value="" style="rounded=1;orthogonalLoop=1;jettySize=auto;strokeColor=default;strokeWidth=2;align=center;verticalAlign=middle;fontFamily=Helvetica;fontSize=11;fontColor=default;labelBackgroundColor=default;endArrow=classic;endFill=1;html=1;entryX=0.5;entryY=1;entryDx=0;entryDy=0;entryPerimeter=0;" edge="1" parent="1" target="XV6XXHB6J6w0AaUdaMAE-9">
          <mxGeometry relative="1" as="geometry">
            <mxPoint x="260" y="220" as="sourcePoint" />
            <mxPoint x="280" y="255" as="targetPoint" />
          </mxGeometry>
        </mxCell>
        <mxCell id="XV6XXHB6J6w0AaUdaMAE-2" value="$$a$$" style="text;align=center;verticalAlign=middle;resizable=0;points=[];autosize=1;strokeColor=none;fillColor=none;html=1;" vertex="1" parent="1">
          <mxGeometry x="245" y="375" width="60" height="30" as="geometry" />
        </mxCell>
        <mxCell id="XV6XXHB6J6w0AaUdaMAE-3" value="$$b$$" style="text;align=center;verticalAlign=middle;resizable=0;points=[];autosize=1;strokeColor=none;fillColor=none;html=1;" vertex="1" parent="1">
          <mxGeometry x="215" y="295" width="60" height="30" as="geometry" />
        </mxCell>
        <mxCell id="XV6XXHB6J6w0AaUdaMAE-4" value="" style="rounded=1;orthogonalLoop=1;jettySize=auto;exitX=0.5;exitY=1;exitDx=0;exitDy=0;exitPerimeter=0;strokeWidth=2;endArrow=classic;endFill=1;curved=0;jumpStyle=gap;html=1;" edge="1" parent="1" source="XV6XXHB6J6w0AaUdaMAE-7">
          <mxGeometry relative="1" as="geometry">
            <mxPoint x="260" y="400" as="targetPoint" />
            <Array as="points" />
          </mxGeometry>
        </mxCell>
        <mxCell id="XV6XXHB6J6w0AaUdaMAE-5" value="" style="rounded=0;orthogonalLoop=1;jettySize=auto;strokeColor=default;strokeWidth=2;align=center;verticalAlign=middle;fontFamily=Helvetica;fontSize=11;fontColor=default;labelBackgroundColor=default;endArrow=classic;endFill=1;entryX=0.67;entryY=0;entryDx=0;entryDy=0;entryPerimeter=0;html=1;exitX=0.67;exitY=0;exitDx=0;exitDy=0;exitPerimeter=0;" edge="1" parent="1" source="XV6XXHB6J6w0AaUdaMAE-9" target="XV6XXHB6J6w0AaUdaMAE-7">
          <mxGeometry relative="1" as="geometry">
            <mxPoint x="300" y="270" as="sourcePoint" />
          </mxGeometry>
        </mxCell>
        <mxCell id="XV6XXHB6J6w0AaUdaMAE-6" value="" style="rounded=1;orthogonalLoop=1;jettySize=auto;exitX=0.33;exitY=0;exitDx=0;exitDy=0;exitPerimeter=0;strokeWidth=2;endArrow=classic;endFill=1;curved=0;jumpStyle=gap;html=1;entryX=0.33;entryY=0;entryDx=0;entryDy=0;entryPerimeter=0;" edge="1" parent="1" source="XV6XXHB6J6w0AaUdaMAE-9" target="XV6XXHB6J6w0AaUdaMAE-7">
          <mxGeometry relative="1" as="geometry">
            <mxPoint x="280" y="360" as="targetPoint" />
            <mxPoint x="262" y="245" as="sourcePoint" />
            <Array as="points" />
          </mxGeometry>
        </mxCell>
        <mxCell id="XV6XXHB6J6w0AaUdaMAE-7" value="" style="verticalLabelPosition=bottom;verticalAlign=top;shape=mxgraph.basic.half_circle;fontFamily=Helvetica;fontSize=11;labelBackgroundColor=default;fillColor=#e1d5e7;strokeColor=#9673a6;flipV=0;points=[[0.33,0,0,0,0],[0.5,1,0,0,0],[0.67,0,0,0,0]];html=1;" vertex="1" parent="1">
          <mxGeometry x="240" y="330" width="40" height="20" as="geometry" />
        </mxCell>
        <mxCell id="XV6XXHB6J6w0AaUdaMAE-8" value="$$\nu$$" style="text;align=center;verticalAlign=middle;resizable=0;points=[];autosize=1;strokeColor=none;fillColor=none;fontFamily=Helvetica;fontSize=11;fontColor=default;labelBackgroundColor=none;html=1;" vertex="1" parent="1">
          <mxGeometry x="230" y="325" width="60" height="30" as="geometry" />
        </mxCell>
        <mxCell id="XV6XXHB6J6w0AaUdaMAE-9" value="" style="verticalLabelPosition=bottom;verticalAlign=top;shape=mxgraph.basic.half_circle;fontFamily=Helvetica;fontSize=11;labelBackgroundColor=default;fillColor=#e1d5e7;strokeColor=#9673a6;flipV=1;points=[[0.33,0,0,0,0],[0.5,1,0,0,0],[0.67,0,0,0,0]];html=1;" vertex="1" parent="1">
          <mxGeometry x="240" y="270" width="40" height="20" as="geometry" />
        </mxCell>
        <mxCell id="XV6XXHB6J6w0AaUdaMAE-10" value="$$\mu$$" style="text;align=center;verticalAlign=middle;resizable=0;points=[];autosize=1;strokeColor=none;fillColor=none;fontFamily=Helvetica;fontSize=11;fontColor=default;labelBackgroundColor=none;html=1;" vertex="1" parent="1">
          <mxGeometry x="227.5" y="265" width="65" height="30" as="geometry" />
        </mxCell>
        <mxCell id="XV6XXHB6J6w0AaUdaMAE-11" value="$$a$$" style="text;align=center;verticalAlign=middle;resizable=0;points=[];autosize=1;strokeColor=none;fillColor=none;html=1;" vertex="1" parent="1">
          <mxGeometry x="245" y="295" width="60" height="30" as="geometry" />
        </mxCell>
        <mxCell id="XV6XXHB6J6w0AaUdaMAE-12" value="$$a$$" style="text;align=center;verticalAlign=middle;resizable=0;points=[];autosize=1;strokeColor=none;fillColor=none;html=1;" vertex="1" parent="1">
          <mxGeometry x="245" y="210" width="60" height="30" as="geometry" />
        </mxCell>
      </root>
    </mxGraphModel>
  </diagram>
  <diagram id="L8byp7c_Wj0vSJ8NubLx" name="Page-30">
    <mxGraphModel dx="1193" dy="1198" grid="1" gridSize="5" guides="1" tooltips="1" connect="1" arrows="1" fold="1" page="1" pageScale="1" pageWidth="827" pageHeight="1169" math="1" shadow="0">
      <root>
        <mxCell id="0" />
        <mxCell id="1" parent="0" />
        <mxCell id="bHyEbAE6LUHA1d21Xy38-1" value="" style="rounded=1;orthogonalLoop=1;jettySize=auto;strokeColor=default;strokeWidth=2;align=center;verticalAlign=middle;fontFamily=Helvetica;fontSize=11;fontColor=default;labelBackgroundColor=default;endArrow=classic;endFill=1;html=1;" edge="1" parent="1">
          <mxGeometry relative="1" as="geometry">
            <mxPoint x="440" y="220" as="sourcePoint" />
            <mxPoint x="440" y="400" as="targetPoint" />
          </mxGeometry>
        </mxCell>
        <mxCell id="bHyEbAE6LUHA1d21Xy38-2" value="$$a$$" style="text;align=center;verticalAlign=middle;resizable=0;points=[];autosize=1;strokeColor=none;fillColor=none;html=1;" vertex="1" parent="1">
          <mxGeometry x="420" y="220" width="60" height="30" as="geometry" />
        </mxCell>
      </root>
    </mxGraphModel>
  </diagram>
</mxfile>
